<svg xmlns="http://www.w3.org/2000/svg">
  <symbol viewBox="0 0 102 84" id="logotype-mobile">
    <path d="M0 0L50.6 59.1L101.7 0H0Z" fill="#23A9E1"/>
    <path d="M50.9 0H0V22.5L50.6 84L50.9 83.6L101.6 23.2V0H50.9ZM50.9 57.1L50.6 57.5L3.7 1.8H50.9H98.1L50.9 57.1Z" fill="#491213"/>
    <path d="M50.6 57.5L50.9 57.1L78.5 24.8C71.6 25.7 66.6 30.9 59.9 29.8C56.5 29.2 56.4 27.3 55.4 25.3C54.7 23.8 53.5 24 51.9 23.4C50.5 22.8 49.6 21.7 46.7 22.3C44.2 22.9 43.9 26.8 40.7 26.6C39 26.5 38.9 24.1 36.5 21.1C30.2 13.5 24.3 14.6 20.3 21.6L50.6 57.5Z" fill="#491213"/>
    <path d="M23.3 32.2C23.8 32.8 24.2 33.5 24.1 34.3C24 34.9 23.2 35.8 23.8 36.1C24.5 35.2 25.3 34.2 26 33.3C25.4 33.1 20.6 27.5 20.6 26.8C19.5 27.4 18.5 28 17.4 28.5C17.6 29.2 18.7 28.5 19.3 28.5C20.1 28.6 20.7 29.1 21.3 29.7C19.6 31.1 15.4 34.7 14.9 34.8C14.7 34.8 13.8 34.2 13.8 34.7C13.8 35 14.7 35.7 14.8 35.9C15.5 36.8 16.3 37.7 17 38.6C17.6 38.3 16.9 37.9 17.2 37.4C17.5 37.1 22.1 33.2 23.3 32.2Z" fill="white"/>
    <path d="M18 25.3C18.4 25.2 18.6 25.7 19 25.2C18.2 24.2 17.4 23.3 16.6 22.3C16.2 21.9 15.8 21.4 15.9 22.3C16 22.9 9.8 28 9.4 28.1C8.9 28.3 8.6 27.7 8.3 28.2C9 29.1 9.8 29.9 10.5 30.8C10.7 31.1 11 31.4 11.2 31.7C11.5 32 11.4 31 11.4 31.1C11.3 30.6 11.9 30.2 12.3 29.9C13.8 28.5 17.6 25.3 18 25.3Z" fill="white"/>
    <path d="M9.2 24.4C7.4 24.9 5.6 24.2 5 22.4C4.5 20.6 5.6 18.6 7.1 17.6C8.5 16.6 10.7 16.6 11.5 18.4C11.8 19.2 11.7 20.1 11.4 20.9C11.2 21.4 10.8 21.9 11.5 22.2C12.4 21.1 13.2 20 14.1 18.9C13 18.3 12.6 17.2 11.8 16.3C10.9 15.2 9.7 14.2 8.3 14C5.4 13.6 2.7 16.6 2.5 19.2C2.4 20.7 2.9 22 3.7 23.2C4.5 24.2 5.6 24.8 6.1 26C6.4 26.1 8.8 25 9.4 24.7C9.3 24.6 9.3 24.4 9.2 24.4C8.5 24.6 9.2 24.4 9.2 24.4Z" fill="white"/>
    <path d="M48.5 60.8C47.3 60 44.5 56.1 43.9 55.5C43.8 55.4 43.7 55.2 43.6 55.1C43.6 55.1 43.3 55.3 43.4 55.3C43.2 55.4 43.5 55.9 43.3 56.2C42.5 57.4 37.5 61.2 37.3 61.4C36.7 61.8 36.1 61.2 35.8 61.7C36.5 62.6 38.6 65.2 38.8 65.3C39.3 65.4 38.9 64.5 39 64.3C39.1 63.9 41.6 61.9 42.5 61.1C42.8 60.8 43.2 61.5 43.4 61.8C43.7 62.3 43.9 62.8 43.7 63.4C43.6 63.8 43 64.3 43.4 64.6C44 63.9 45.8 61.8 46 61.6C46.3 61.3 45.4 61.6 45.5 61.5C45.1 61.7 44.8 61.7 44.4 61.5C44.3 61.4 43.3 60.4 43.4 60.3C43.8 59.9 44.4 59.3 44.9 59.2C45.8 59 46.5 60.7 46.6 61.3C46.7 61.9 46.7 62.5 46.5 63.1C46.4 63.5 46 63.8 46.5 64C47.2 63 47.9 62.1 48.6 61.1C48.8 60.9 48.6 60.8 48.5 60.8C48.4 60.7 48.7 60.8 48.5 60.8Z" fill="white"/>
    <path d="M38.3 56.6C40.5 54.7 40.8 51.5 39.1 49.3C37.2 46.8 33.7 46.2 31.3 48.2C29.1 50.1 28.8 53.2 30.5 55.5C32.5 58.2 35.7 58.5 38.3 56.6C39.5 55.7 38.2 56.7 38.3 56.6ZM37.8 51.9C37.2 53.4 35.6 55 34.1 55.6C32.3 56.3 31 54.8 31.7 53C32.3 51.5 33.9 49.9 35.4 49.3C37.3 48.6 38.5 50.2 37.8 51.9C37.5 52.8 37.9 51.7 37.8 51.9Z" fill="white"/>
    <path d="M31.9 42C32.4 42.1 32.8 42.6 33.2 42C32.5 41.1 31.7 40.2 31 39.4C30.4 39.7 31 39.9 30.8 40.4C30.6 40.8 28.2 41.2 27.6 41.3C27.8 40.7 28.5 38.7 28.8 38.5C29.3 38.1 29.7 38.9 30.1 38.4C29.2 37.3 28.3 36.2 27.4 35.1C27.1 34.7 26.8 34.1 26.4 34.4C26.4 34.4 26.4 35.9 26.3 36.1C26.2 36.3 25.4 39.7 24.4 40.6C23.9 41 22.2 42.5 21.7 42.7C21.2 42.9 20.9 42.1 20.5 42.7C21.3 43.7 22.2 44.7 23 45.7C23.1 45.8 23.6 46.6 23.8 46.6C24.3 46.7 23.9 45.7 23.9 45.5C24.1 45.1 26.4 42.8 27.4 42.6C28.6 42.3 30.4 41.8 31.9 42C32.2 42.1 31.5 42 31.9 42Z" fill="white"/>
    <path d="M69.2 52.4C69.4 53 69.5 53.7 69.4 54.4C69.3 55.3 68.4 57.3 67.2 56.7C66 56.1 65 55 64 54.1C64.8 53.2 65.5 52.4 66.9 52.8C67.3 52.9 67.6 52.8 67.2 52.5C66.8 52.3 64.1 50.5 63.9 50.7C63.6 51 64.4 51.6 64.1 52.2C63.9 52.6 63.5 53 63.2 53.4C62.5 52.8 61.3 52.1 62.1 51.1C62.6 50.4 63.4 49.9 64.2 49.8C64.8 49.7 66 50.2 66.2 49.6C65.1 49.1 64 48.6 62.9 48C63.1 48.8 59.6 52.5 58.8 53.5C58.7 53.6 58.1 54.1 58.1 54.3C58.1 54.7 58.7 54.4 58.8 54.4C59.3 54.2 65.6 59.5 65.8 59.9C65.9 60.2 65.6 60.5 65.8 60.6C65.8 60.6 66 60.8 66.1 60.8C66.5 60.3 70.6 54.8 71.5 54.6C70.7 53.4 69.9 52.2 69.1 50.9C68.5 51.3 69.1 52 69.2 52.4Z" fill="white"/>
    <path d="M63 59.2C60.9 57.9 57.4 60.5 56.9 60.7C55.9 61.2 55.1 60.2 55.6 59.2C56.1 58.4 57 58 57.9 57.9C58.2 57.9 59.3 58.1 59.4 57.9C59.5 57.7 59.6 57.7 59.4 57.6C58.5 57 57.7 56.4 56.8 55.9C56.6 57 55.4 57.6 54.7 58.3C53.9 59.2 53.2 60.2 53.2 61.5C53.2 62.6 53.9 63.6 54.9 64.2C56 64.8 57.2 64.3 58.2 63.7C58.8 63.3 59.5 62.8 60.1 62.5C61.1 62 62.4 62.4 62.1 63.8C61.8 64.9 60.7 65.9 59.7 66.1C59.1 66.3 58.4 66.2 57.8 66C57.4 65.9 56.8 65.3 56.6 65.9C57.8 66.7 58.9 67.6 60.1 68.4C60.2 67.6 60.6 67.3 61.2 66.8C61.9 66.2 62.6 65.5 63.2 64.7C64.4 63 64.8 60.6 63 59.2Z" fill="white"/>
    <path d="M63 59.2C64 59.7 62.4 58.7 63 59.2V59.2Z" fill="white"/>
    <path d="M99.7 19.6C99 20.3 91.3 17.3 90.7 16.8C90.4 16.7 90.4 15.5 90 16C89.6 16.5 89.2 17 88.8 17.5C88.4 18 88 18.5 87.5 19C87.2 19.3 87 19.5 87.5 19.7C88.3 19.3 92.9 27 92.5 28.2C91.8 28.6 85.6 23.1 85.4 22.8C85.3 22.7 85.7 21.8 85.2 21.9C85 21.9 84.5 22.8 84.3 23C84 23.4 83.7 23.7 83.4 24.1C83.7 24.6 83.9 24.1 84.4 24.1C84.8 24.2 86.2 25.4 86.6 25.8C85.9 25.8 83.9 25.9 83.7 25.9C82.8 26 83.3 25.2 82.7 25C81.9 25.9 81.2 26.8 80.4 27.8C80 28.3 79.5 28.9 79.1 29.4C79 29.5 79.1 29.4 79.2 29.5C79.5 29.8 79.3 29.7 79.8 29.5C80.3 29.3 86.4 34.4 86.6 34.7C87 35.2 86.4 35.7 87 35.9C87.6 35.2 88.2 34.4 88.8 33.7C88.9 33.6 88.9 33.6 88.8 33.5C88.4 33.1 88.3 33.7 87.8 33.7C87.3 33.6 83.4 30.3 81.9 29.1C83.7 29 89.2 28.8 90.1 28.8C90.4 28.8 91.2 29.7 91.2 30C91.1 30.4 90.7 30.6 91.3 30.8C91.8 30.2 92.3 29.7 92.8 29.1L93 28.8C93.1 28.7 93.1 28.7 93.2 28.5L93.4 28.3C93.8 27.8 95.2 26.3 95 26.1C94.5 25.7 94.3 26.6 93.7 26C93.4 25.8 92.5 24.2 92.3 23.8C92 23.4 92.9 22.9 93.3 22.7C94.1 22.2 96.5 21.5 96.8 23C96.8 23.3 96.5 23.5 96.7 23.7C96.7 23.7 96.9 23.9 97 23.9C97.2 23.7 99.4 21.1 100.3 19.9C99.9 19.8 99.8 19.7 99.7 19.6ZM92.3 21.8C92.4 21.7 92.5 21.7 92.3 21.8C92 22 91.6 22.3 91.3 22.6C90.8 21.7 90.3 20.8 89.7 19.9C90.9 20.4 92.1 20.9 93.2 21.4C93 21.4 92.7 21.6 92.3 21.8Z" fill="white"/>
    <path d="M82.6 33C80.2 31 77 31.6 75 33.8C73.1 36.1 73.3 39.5 75.6 41.4C77.9 43.3 81.3 42.8 83.2 40.6C85.1 38.3 85 34.9 82.6 33ZM82.3 39.6C81 40.9 78.9 39.7 77.8 38.9C76.7 38.1 74.7 36.3 75.9 34.8C77 33.5 79 34.6 80.1 35.3C81.3 36.1 83.5 37.9 82.4 39.5C82.5 39.4 82.5 39.4 82.3 39.6Z" fill="white"/>
    <path d="M82.6 33C83.8 34 82.3 32.8 82.6 33V33Z" fill="white"/>
    <path d="M82.3 39.6C82.4 39.5 82.4 39.5 82.4 39.5C82.3 39.6 82.3 39.6 82.3 39.6Z" fill="white"/>
    <path d="M76 42.1C76.1 42.2 76.3 42.3 76 42.1C73.1 39.9 69.7 40.5 67.5 43.2C66.5 44.4 65.5 45.6 64.5 46.8C64.9 47.3 65.3 46.7 65.8 47C66.2 47.3 72 52.1 72.1 52.4C72.3 52.9 71.8 52.9 72.2 53.3C72.4 53.4 76.7 48.1 77.1 47.1C78 45.3 77.4 43.3 76 42.1ZM74.7 48.9C74.5 49.2 74.7 49 74 49.6C73.7 49.9 67.6 44.9 67.8 44.7C68.6 43.8 70.4 43.1 71.4 43.4C73.6 43.8 76.6 46.5 74.7 48.9Z" fill="white"/>
    <path d="M50.6 57.5L50.9 57.1L78.5 24.8C71.6 25.7 66.6 30.9 59.9 29.8C56.5 29.2 56.4 27.3 55.4 25.3C54.7 23.8 53.5 24 51.9 23.4C50.5 22.8 49.6 21.7 46.7 22.3C44.2 22.9 43.9 26.8 40.7 26.6C39 26.5 38.9 24.1 36.5 21.1C30.2 13.5 24.3 14.6 20.3 21.6L50.6 57.5Z" fill="#491213"/>
    <path d="M46.5 70.9L50.6 64.4L54.6 70.9L50.6 77.4L46.5 70.9Z" fill="#23A9E1"/>
    <path d="M23.3 32.3C23.8 32.9 24.2 33.6 24.1 34.4C24 35 23.2 36 23.8 36.2C24.5 35.3 25.3 34.3 26 33.4C25.4 33.2 20.6 27.6 20.6 26.9C19.5 27.5 18.5 28.1 17.4 28.6C17.6 29.3 18.7 28.6 19.3 28.6C20.1 28.7 20.7 29.2 21.3 29.8C19.6 31.2 15.4 34.8 14.9 34.9C14.7 34.9 13.8 34.3 13.8 34.8C13.8 35.1 14.7 35.8 14.8 36C15.5 36.9 16.3 37.8 17 38.7C17.6 38.4 16.9 38 17.2 37.5C17.5 37.1 22.1 33.2 23.3 32.3Z" fill="white"/>
    <path d="M18 25.3C18.4 25.2 18.6 25.7 19 25.2C18.2 24.2 17.4 23.3 16.6 22.3C16.2 21.9 15.8 21.4 15.9 22.3C16 22.9 9.8 28 9.4 28.1C8.9 28.3 8.6 27.7 8.3 28.2C9 29.1 9.8 29.9 10.5 30.8C10.7 31.1 11 31.4 11.2 31.7C11.5 32 11.4 31 11.4 31.1C11.3 30.6 11.9 30.2 12.3 29.9C13.8 28.6 17.6 25.3 18 25.3Z" fill="white"/>
    <path d="M9.2 24.4C7.4 24.9 5.5 24.2 5 22.4C4.5 20.6 5.6 18.6 7.1 17.6C8.5 16.6 10.7 16.6 11.5 18.4C11.8 19.2 11.7 20.1 11.4 20.9C11.2 21.4 10.8 21.9 11.5 22.2C12.4 21.1 13.2 20 14.1 18.9C13 18.3 12.6 17.2 11.8 16.3C10.9 15.2 9.7 14.2 8.3 14C5.4 13.6 2.7 16.6 2.5 19.2C2.4 20.7 2.9 22 3.7 23.2C4.5 24.2 5.6 24.8 6.1 26C6.4 26.1 8.8 25 9.4 24.7C9.3 24.6 9.3 24.5 9.2 24.4C8.5 24.6 9.2 24.4 9.2 24.4Z" fill="white"/>
    <path d="M48.5 60.8C47.3 60 44.5 56.1 43.9 55.5C43.8 55.4 43.7 55.2 43.6 55.1C43.6 55.1 43.3 55.3 43.4 55.3C43.2 55.4 43.5 55.9 43.3 56.2C42.5 57.4 37.5 61.2 37.3 61.4C36.7 61.8 36.1 61.2 35.8 61.7C36.5 62.6 38.6 65.2 38.8 65.3C39.3 65.4 38.9 64.5 39 64.3C39.1 63.9 41.6 61.9 42.5 61.1C42.8 60.8 43.2 61.5 43.4 61.8C43.7 62.3 43.9 62.8 43.7 63.4C43.6 63.8 43 64.3 43.4 64.6C44 63.9 45.8 61.8 46 61.6C46.3 61.3 45.4 61.6 45.5 61.5C45.1 61.7 44.8 61.7 44.4 61.5C44.3 61.4 43.3 60.4 43.4 60.3C43.8 59.9 44.4 59.3 44.9 59.2C45.8 59 46.5 60.7 46.6 61.3C46.7 61.9 46.7 62.5 46.5 63.1C46.4 63.5 46 63.8 46.5 64C47.2 63 47.9 62.1 48.6 61.1C48.8 60.9 48.6 60.8 48.5 60.8C48.4 60.7 48.7 60.8 48.5 60.8Z" fill="white"/>
    <path d="M38.3 56.6C40.5 54.7 40.8 51.5 39.1 49.3C37.2 46.8 33.7 46.2 31.3 48.2C29.1 50.1 28.8 53.2 30.5 55.5C32.5 58.2 35.7 58.5 38.3 56.6C39.5 55.7 38.2 56.7 38.3 56.6ZM37.8 51.9C37.2 53.4 35.6 55 34.1 55.6C32.3 56.3 31 54.8 31.7 53C32.4 51.5 33.9 49.9 35.4 49.3C37.3 48.6 38.5 50.2 37.8 51.9C37.4 52.8 37.9 51.7 37.8 51.9Z" fill="white"/>
    <path d="M31.9 42C32.4 42.1 32.8 42.5 33.2 42C32.5 41.1 31.7 40.2 31 39.4C30.4 39.7 31 39.9 30.8 40.4C30.6 40.8 28.2 41.2 27.6 41.3C27.8 40.7 28.5 38.7 28.8 38.5C29.3 38.1 29.7 38.9 30.1 38.4C29.2 37.3 28.3 36.2 27.4 35.1C27.1 34.7 26.8 34.1 26.4 34.4C26.4 34.4 26.4 35.9 26.3 36.1C26.2 36.3 25.4 39.7 24.4 40.6C23.9 41 22.2 42.5 21.7 42.7C21.2 42.9 20.9 42.1 20.5 42.7C21.3 43.7 22.2 44.7 23 45.7C23.1 45.8 23.6 46.6 23.8 46.6C24.3 46.7 23.9 45.7 23.9 45.5C24.1 45.1 26.4 42.8 27.4 42.6C28.6 42.4 30.4 41.9 31.9 42C32.2 42.1 31.5 42 31.9 42Z" fill="white"/>
    <path d="M25.6 22.9C21.6 22.7 23.2 18.9 26 18.1C28.6 17.3 34.1 19.8 35.8 21.5C33 22.4 29.4 22.2 26.4 22.4C26.2 19.2 25.4 20.3 25.6 22.9Z" fill="#DC6243"/>
    <path d="M26.6 27.7C24.6 26.1 25.2 22.4 28.4 23.6C32.4 25.7 27.5 26.8 26.6 27.7Z" fill="#DC6243"/>
    <path d="M35.1 35.4C26.5 35.3 32.3 22.1 35.2 22.9C38.6 24 38.2 35.5 35.1 35.4Z" fill="#DC6243"/>
    <path d="M41.2 31.1C40.4 33.6 38.8 34.1 39 31C39.2 27.5 41.5 28.3 43.9 27C45.9 25.9 47 21.8 50.5 24.2C52.1 25.3 53.9 24.4 54.4 26C54.4 25.9 49.9 36.3 52.4 36.3C47.4 36.3 49.6 30.4 51.5 26.4C49.7 27.3 46.7 33.1 49.1 34C47.8 35.7 43.9 37.9 41.9 36.3C40.4 35.2 41.2 33.1 41.2 31.1Z" fill="#DC6243"/>
    <path d="M45.3 40.7C41.8 41.7 37.2 39.5 42.8 38.4C46.3 37.7 50 39.1 45.3 40.7C45.4 40.7 45.2 40.7 45.3 40.7Z" fill="#DC6243"/>
    <path d="M49.7 40.6C49 38.9 50.3 37 52.4 38.4C54.2 39.6 51.5 41.5 49.7 40.6Z" fill="#DC6243"/>
    <path d="M46.7 45.2C44.3 44.5 36.2 44.6 41.5 42.4C43.2 41.8 51.7 42.6 46.7 45.2Z" fill="#DC6243"/>
    <path d="M49.9 44.9C49.9 43.9 49.4 42.2 51.3 43C53.5 43.8 49.9 45.6 49.9 44.9C49.9 44.9 49.9 44.7 49.9 44.9Z" fill="#DC6243"/>
    <path d="M57.2 48.5C55.8 47.3 54.3 47.2 53 48.5C51.2 45.2 44.7 46.3 41.6 45.8C43.2 49.9 56.4 50.7 57.2 48.5Z" fill="#DC6243"/>
    <path d="M55.3 51C52.1 50.9 48.6 50.4 45.7 51.1C47.6 51.6 52.1 52.9 47.9 54C49.4 56.2 51.9 56 53.5 54.1C52.8 53.8 52.5 53.4 51.9 53C53.5 52.7 55.1 51.8 55.3 51Z" fill="#DC6243"/>
    <path d="M58.9 47.1C53.6 44 54.9 41.7 59.3 39.5C61.6 38.4 66.6 34.3 68.7 35.6C65.4 39.5 62.1 43.3 58.9 47.1Z" fill="#DC6243"/>
    <path d="M55.1 39.8C50.6 35.2 61.8 35.6 63.6 34C64.9 34.4 74.4 25.7 76.7 26.3C75 28.2 71.5 34.4 68.9 34.4C66.9 34.4 64.9 34.1 63.4 35.5C61.2 37.6 57.5 38.6 55.1 39.8Z" fill="#F49774"/>
    <path d="M56.6 34.2C54.1 35.5 51.8 30.3 56.1 30.8C58.9 31.1 61.8 30.6 64.4 31C62.4 33.3 59.7 34.6 56.6 34.2Z" fill="#F4B1A4"/>
    <path d="M69.2 52.5C69.4 53.1 69.5 53.8 69.4 54.5C69.3 55.4 68.4 57.4 67.2 56.8C66 56.2 65 55.1 64 54.2C64.8 53.3 65.5 52.5 66.9 52.9C67.3 53 67.6 52.9 67.2 52.6C66.8 52.4 64.1 50.6 63.9 50.8C63.6 51.1 64.4 51.7 64.1 52.3C63.9 52.7 63.5 53.1 63.2 53.5C62.5 52.9 61.3 52.2 62.1 51.2C62.6 50.5 63.4 50 64.2 49.9C64.8 49.8 66 50.3 66.2 49.7C65.1 49.2 64 48.7 62.9 48.1C63.1 48.9 59.6 52.6 58.8 53.6C58.7 53.7 58.1 54.2 58.1 54.4C58.1 54.8 58.7 54.5 58.8 54.5C59.3 54.3 65.6 59.6 65.8 60C65.9 60.3 65.6 60.6 65.8 60.7C65.8 60.7 66 60.9 66.1 60.9C66.5 60.4 70.6 54.9 71.5 54.7C70.7 53.5 69.9 52.3 69.1 51C68.5 51.3 69.1 52 69.2 52.5Z" fill="white"/>
    <path d="M63 59.2C60.9 57.9 57.4 60.5 56.9 60.7C55.9 61.2 55.1 60.2 55.6 59.2C56.1 58.4 57 58 57.9 57.9C58.2 57.9 59.2 58.1 59.4 57.9C59.5 57.7 59.6 57.7 59.4 57.6C58.5 57 57.7 56.4 56.8 55.9C56.6 57 55.4 57.6 54.7 58.3C53.9 59.2 53.2 60.2 53.2 61.5C53.2 62.6 53.9 63.6 54.9 64.2C56 64.8 57.2 64.3 58.2 63.7C58.8 63.3 59.5 62.8 60.1 62.5C61.1 62 62.4 62.4 62.1 63.8C61.8 64.9 60.7 65.9 59.7 66.1C59.1 66.3 58.4 66.2 57.8 66C57.4 65.9 56.8 65.3 56.6 65.9C57.8 66.7 58.9 67.6 60.1 68.4C60.2 67.6 60.6 67.3 61.2 66.8C61.9 66.2 62.6 65.5 63.2 64.7C64.4 63 64.8 60.6 63 59.2Z" fill="white"/>
    <path d="M63 59.2C64 59.8 62.4 58.7 63 59.2V59.2Z" fill="white"/>
    <path d="M99.7 19.6C99 20.3 91.3 17.3 90.7 16.8C90.4 16.7 90.4 15.5 90 16C89.6 16.5 89.2 17 88.8 17.5C88.4 18 88 18.5 87.5 19C87.2 19.3 87 19.5 87.5 19.7C88.3 19.3 92.9 27 92.5 28.2C91.8 28.6 85.6 23.1 85.4 22.8C85.3 22.7 85.7 21.8 85.2 21.9C85 21.9 84.5 22.8 84.3 23C84 23.4 83.7 23.7 83.4 24.1C83.7 24.6 83.9 24.1 84.4 24.1C84.8 24.2 86.2 25.4 86.6 25.8C85.9 25.8 83.9 25.9 83.7 25.9C82.8 26 83.3 25.2 82.7 25C81.9 25.9 81.2 26.8 80.4 27.8C80 28.3 79.5 28.9 79.1 29.4C79 29.5 79.1 29.4 79.1 29.5C79.4 29.8 79.2 29.7 79.7 29.5C80.2 29.3 86.3 34.4 86.5 34.7C86.9 35.1 86.3 35.7 86.9 35.9C87.5 35.2 88.1 34.4 88.7 33.7C88.8 33.6 88.8 33.6 88.7 33.5C88.3 33.1 88.2 33.7 87.7 33.7C87.2 33.6 83.3 30.3 81.8 29.1C83.6 29 89.1 28.8 90 28.8C90.3 28.8 91.1 29.7 91.1 30C91 30.4 90.6 30.6 91.2 30.8C91.7 30.2 92.2 29.7 92.7 29.1L92.9 28.8C93 28.7 93 28.7 93.1 28.5L93.3 28.3C93.7 27.8 95.1 26.3 94.9 26.2C94.4 25.8 94.2 26.7 93.6 26.1C93.3 25.9 92.4 24.3 92.2 23.9C91.9 23.5 92.8 23 93.2 22.8C94 22.3 96.4 21.6 96.7 23.1C96.7 23.4 96.4 23.6 96.6 23.8C96.6 23.8 96.8 24 96.9 24C97.1 23.8 99.3 21.2 100.2 20C99.9 19.8 99.8 19.7 99.7 19.6ZM92.3 21.8C92.4 21.8 92.5 21.7 92.3 21.8C92 22 91.6 22.3 91.3 22.6C90.8 21.7 90.3 20.8 89.7 19.9C90.9 20.4 92.1 20.9 93.2 21.4C93 21.5 92.7 21.6 92.3 21.8Z" fill="white"/>
    <path d="M82.6 33C80.2 31 77 31.6 75 33.8C73.1 36.1 73.3 39.5 75.6 41.4C77.9 43.3 81.3 42.8 83.2 40.6C85.1 38.3 85 34.9 82.6 33ZM82.3 39.6C82.3 39.6 82.3 39.7 82.3 39.6C81 40.9 78.9 39.7 77.8 38.9C76.7 38.1 74.7 36.3 75.9 34.8C77 33.5 79 34.6 80.1 35.3C81.3 36.1 83.5 37.9 82.4 39.5C82.5 39.4 82.5 39.4 82.3 39.6Z" fill="white"/>
    <path d="M82.6 33C83.8 34 82.3 32.8 82.6 33V33Z" fill="white"/>
    <path d="M82.3 39.7C82.3 39.6 82.3 39.6 82.3 39.7C82.4 39.6 82.4 39.6 82.4 39.6C82.3 39.6 82.3 39.7 82.3 39.7Z" fill="white"/>
    <path d="M76 42.1C76.1 42.2 76.3 42.4 76 42.1C73.1 39.9 69.7 40.5 67.5 43.2C66.5 44.4 65.5 45.6 64.5 46.8C64.9 47.3 65.3 46.7 65.8 47C66.2 47.3 72 52.1 72.1 52.4C72.3 52.9 71.8 52.9 72.2 53.3C72.4 53.4 76.7 48.1 77.1 47.1C78 45.3 77.4 43.4 76 42.1ZM74.7 48.9C74.5 49.2 74.7 49 74 49.6C73.7 49.9 67.6 44.9 67.8 44.7C68.6 43.8 70.4 43.1 71.4 43.4C73.6 43.9 76.6 46.6 74.7 48.9Z" fill="white"/>
  </symbol>
  <symbol viewBox="0 0 187 97" id="logotype-desktop">
    <!-- <symbol viewBox="0 0 187 97" id="logotype">
    <g class="logotype-desktop">
      <path d="M186.6 0H0L80.5 90.5C87.6 98.4 99.1 98.4 106.2 90.5L186.6 0Z" fill="#81B3D3"/>
    </g> -->
    <path d="M186.6 0H0L80.5 90.5C87.6 98.4 99.1 98.4 106.2 90.5L186.6 0Z" fill="#81B3D3"/>
    <path d="M43.2 0.7L92.8 59.1L142.1 1.1L43.2 0.7Z" fill="#23A9E1"/>
    <path d="M122 17.3C116.9 17.3 111.9 17.4 106.8 17.4C112.8 10.5 115.5 11.2 122 17.3Z" fill="white"/>
    <path d="M80.8 22.7C89.7 22.7 98.6 22.7 107.5 22.7C105.5 21.5 100.8 15.6 98.2 17.8C98 18 90.7 8.9 85.9 13.3C81.7 17.1 79.8 12.8 75 15.8C69.7 19.4 78.2 21.5 80.8 22.7Z" fill="white"/>
    <path d="M93.0999 0H42.2V22.5L92.8 84L93.0999 83.6L143.8 23.2V0H93.0999ZM54.9 1.8H60.4V19L54.9 12.5V1.8ZM54.0999 11.6L49.0999 5.7V1.8H54.0999V11.6ZM73.4 8.9L67.6999 1.8H73.4V8.9ZM66.8 12.7L61.2 1.8H66.8V12.7ZM61.0999 3.4L66.5999 14.1C63.7999 16.2 61.8999 18.1 61.0999 19V3.4ZM67.5999 2.9L73.1999 9.8C72.0999 10.4 70.9999 11.1 70.0999 11.7C69.1999 12.3 68.3999 12.9 67.5999 13.5V2.9ZM74.1999 2.7L79 6.9C77.2999 7.6 75.6999 8.4 74.1999 9.2V2.7ZM79.8 6.6L74.4 1.8H80.4V6.4C80.1 6.4 80 6.5 79.8 6.6ZM98.9 1.8H103.9L98.9 4.2V1.8ZM93.0999 1.8H97.5L93.0999 3.9V1.8ZM92.1999 3.8L88 1.8H92.1999V3.8ZM86.6999 4.3L81.5999 1.8H86.6999V4.3ZM81.0999 2.4L85.8 4.7C84.2 5.1 82.5999 5.5 81.0999 6V2.4ZM87.5 2.4L90.9 4C89.7 4.1 88.6 4.2 87.4 4.4V2.4H87.5ZM97.9 2.5V4.4C96.8 4.2 95.7 4.1 94.5 4L97.9 2.5ZM104.4 2.4V6.1C102.9 5.6 101.3 5.1 99.5999 4.7L104.4 2.4ZM105.1 1.8H111L105.6 6.6C105.4 6.5 105.3 6.5 105.1 6.4V1.8ZM118.7 1.8H124.3L118.7 12.7V1.8ZM112.1 1.8H117.8L112.1 8.8V1.8ZM111.3 2.7V9.2C109.8 8.4 108.2 7.6 106.5 6.9L111.3 2.7ZM117.9 2.9V13.4C117.2 12.9 116.4 12.4 115.6 11.8C114.6 11.1 113.4 10.4 112.2 9.7L117.9 2.9ZM124.3 3.4V18.6C123.2 17.6 121.4 15.9 118.8 14L124.3 3.4ZM125.1 19.4V1.8H130.6V13.2L125.1 19.4C125.2 19.5 125.1 19.5 125.1 19.4ZM131.4 1.8H136.4V6.5L131.4 12.3V1.8ZM48.4 1.8V4.7L45.9 1.8H48.4ZM61.2 20L61.2999 20.1C61.2999 20.1 64.9 16.2 70.5 12.5C75.7999 9 83.8 4.9 92.8 5C101.7 5 109.9 9.2 115.1 12.7C120.7 16.4 124.4 20.2 124.5 20.3L120.6 24.8C113.7 25.7 108.7 30.9 102 29.8C98.5999 29.2 98.5 27.3 97.5 25.3C96.7999 23.8 95.5999 24 94 23.4C92.5999 22.8 91.7 21.7 88.8 22.3C86.3 22.9 86 26.8 82.8 26.6C81.1 26.5 81 24.1 78.5999 21.1C72.2999 13.5 66.4 14.6 62.4 21.6L92.6999 57.5L61.2 20ZM137.1 5.5V1.8H140.3L137.1 5.5Z" fill="#491213"/>
    <path d="M88.7 70.9L92.8 64.4L96.8 70.9L92.8 77.4L88.7 70.9Z" fill="#23A9E1"/>
    <path d="M65.4999 32.3C65.9999 32.9 66.3999 33.6 66.2999 34.4C66.1999 35 65.3999 36 65.9999 36.2C66.6999 35.3 67.4999 34.3 68.1999 33.4C67.5999 33.2 62.7999 27.6 62.7999 26.9C61.6999 27.5 60.6999 28.1 59.5999 28.6C59.7999 29.3 60.8999 28.6 61.4999 28.6C62.2999 28.7 62.8999 29.2 63.4999 29.8C61.7999 31.2 57.5999 34.8 57.0999 34.9C56.8999 34.9 55.9999 34.3 55.9999 34.8C55.9999 35.1 56.8999 35.8 56.9999 36C57.6999 36.9 58.4999 37.8 59.1999 38.7C59.7999 38.4 59.0999 38 59.3999 37.5C59.6999 37.1 64.2999 33.2 65.4999 32.3Z" fill="white"/>
    <path d="M60.1999 25.3C60.5999 25.2 60.7999 25.7 61.1999 25.2C60.3999 24.2 59.5999 23.3 58.7999 22.3C58.3999 21.9 57.9999 21.4 58.0999 22.3C58.1999 22.9 51.9999 28 51.5999 28.1C51.0999 28.3 50.7999 27.7 50.4999 28.2C51.1999 29.1 51.9999 29.9 52.6999 30.8C52.8999 31.1 53.1999 31.4 53.3999 31.7C53.6999 32 53.5999 31 53.5999 31.1C53.4999 30.6 54.0999 30.2 54.4999 29.9C55.9999 28.6 59.7999 25.3 60.1999 25.3Z" fill="white"/>
    <path d="M51.3999 24.4C49.5999 24.9 47.6999 24.2 47.1999 22.4C46.6999 20.6 47.7999 18.6 49.2999 17.6C50.6999 16.6 52.8999 16.6 53.6999 18.4C53.9999 19.2 53.8999 20.1 53.5999 20.9C53.3999 21.4 52.9999 21.9 53.6999 22.2C54.5999 21.1 55.3999 20 56.2999 18.9C55.1999 18.3 54.7999 17.2 53.9999 16.3C53.0999 15.2 51.8999 14.2 50.4999 14C47.5999 13.6 44.8999 16.6 44.6999 19.2C44.5999 20.7 45.0999 22 45.8999 23.2C46.6999 24.2 47.7999 24.8 48.2999 26C48.5999 26.1 50.9999 25 51.5999 24.7C51.4999 24.6 51.4999 24.5 51.3999 24.4C50.6999 24.6 51.3999 24.4 51.3999 24.4Z" fill="white"/>
    <path d="M90.6999 60.8C89.4999 60 86.6999 56.1 86.0999 55.5C85.9999 55.4 85.8999 55.2 85.7999 55.1C85.7999 55.1 85.4999 55.3 85.5999 55.3C85.3999 55.4 85.6999 55.9 85.4999 56.2C84.6999 57.4 79.6999 61.2 79.4999 61.4C78.8999 61.8 78.2999 61.2 77.9999 61.7C78.6999 62.6 80.7999 65.2 80.9999 65.3C81.4999 65.4 81.0999 64.5 81.1999 64.3C81.2999 63.9 83.7999 61.9 84.6999 61.1C84.9999 60.8 85.3999 61.5 85.5999 61.8C85.8999 62.3 86.0999 62.8 85.8999 63.4C85.7999 63.8 85.1999 64.3 85.5999 64.6C86.1999 63.9 87.9999 61.8 88.1999 61.6C88.4999 61.3 87.5999 61.6 87.6999 61.5C87.2999 61.7 86.9999 61.7 86.5999 61.5C86.4999 61.4 85.4999 60.4 85.5999 60.3C85.9999 59.9 86.5999 59.3 87.0999 59.2C87.9999 59 88.6999 60.7 88.7999 61.3C88.8999 61.9 88.8999 62.5 88.6999 63.1C88.5999 63.5 88.1999 63.8 88.6999 64C89.3999 63 90.0999 62.1 90.7999 61.1C90.9999 60.9 90.7999 60.8 90.6999 60.8C90.5999 60.7 90.8999 60.8 90.6999 60.8Z" fill="white"/>
    <path d="M80.5 56.6C82.7 54.7 83 51.5 81.3 49.3C79.4 46.8 75.9 46.2 73.5 48.2C71.3 50.1 70.9999 53.2 72.6999 55.5C74.6999 58.2 77.9 58.5 80.5 56.6C81.7 55.7 80.4 56.7 80.5 56.6ZM80 51.9C79.4 53.4 77.8 55 76.3 55.6C74.5 56.3 73.2 54.8 73.9 53C74.6 51.5 76.1 49.9 77.6 49.3C79.5 48.6 80.7 50.2 80 51.9C79.6 52.8 80.1 51.7 80 51.9Z" fill="white"/>
    <path d="M74.0999 42C74.5999 42.1 75 42.5 75.4 42C74.7 41.1 73.8999 40.2 73.1999 39.4C72.5999 39.7 73.2 39.9 73 40.4C72.8 40.8 70.4 41.2 69.8 41.3C70 40.7 70.7 38.7 71 38.5C71.5 38.1 71.9 38.9 72.3 38.4C71.4 37.3 70.4999 36.2 69.5999 35.1C69.2999 34.7 68.9999 34.1 68.5999 34.4C68.5999 34.4 68.6 35.9 68.5 36.1C68.4 36.3 67.5999 39.7 66.5999 40.6C66.0999 41 64.4 42.5 63.9 42.7C63.4 42.9 63.1 42.1 62.7 42.7C63.5 43.7 64.3999 44.7 65.1999 45.7C65.2999 45.8 65.8 46.6 66 46.6C66.5 46.7 66.0999 45.7 66.0999 45.5C66.2999 45.1 68.5999 42.8 69.5999 42.6C70.7999 42.4 72.5999 41.9 74.0999 42C74.3999 42.1 73.6999 42 74.0999 42Z" fill="white"/>
    <path d="M67.8 22.9C63.8 22.7 65.4 18.9 68.2 18.1C70.8 17.3 76.3 19.8 78 21.5C75.2 22.4 71.6 22.2 68.6 22.4C68.4 19.2 67.6 20.3 67.8 22.9Z" fill="#DC6243"/>
    <path d="M77.3 35.4C68.7 35.3 74.5 22.1 77.4 22.9C80.8 24 80.4 35.5 77.3 35.4Z" fill="#DC6243"/>
    <path d="M83.4 31.1C82.6 33.6 81 34.1 81.2 31C81.4 27.5 83.7 28.3 86.1 27C88.1 25.9 89.2 21.8 92.7 24.2C94.3 25.3 96.1 24.4 96.6 26C96.6 25.9 92.1 36.3 94.6 36.3C89.6 36.3 91.8 30.4 93.7 26.4C91.9 27.3 88.9 33.1 91.3 34C90 35.7 86.1 37.9 84.1 36.3C82.6 35.2 83.4 33.1 83.4 31.1Z" fill="#DC6243"/>
    <path d="M87.5 40.7C84 41.7 79.4 39.5 85 38.4C88.5 37.7 92.2 39.1 87.5 40.7C87.6 40.7 87.4 40.7 87.5 40.7Z" fill="#DC6243"/>
    <path d="M91.9 40.6C91.2 38.9 92.5 37 94.6 38.4C96.4 39.6 93.7 41.5 91.9 40.6Z" fill="#DC6243"/>
    <path d="M88.8999 45.2C86.4999 44.5 78.3999 44.6 83.6999 42.4C85.3999 41.8 93.8999 42.6 88.8999 45.2Z" fill="#DC6243"/>
    <path d="M99.3999 48.5C97.9999 47.3 96.4999 47.2 95.1999 48.5C93.3999 45.2 86.8999 46.3 83.7999 45.8C85.3999 49.9 98.5999 50.7 99.3999 48.5Z" fill="#DC6243"/>
    <path d="M97.4999 51C94.2999 50.9 90.7999 50.4 87.8999 51.1C89.7999 51.6 94.2999 52.9 90.0999 54C91.5999 56.2 94.0999 56 95.6999 54.1C94.9999 53.8 94.6999 53.4 94.0999 53C95.6999 52.7 97.2999 51.8 97.4999 51Z" fill="#DC6243"/>
    <path d="M101.1 47.1C95.7999 44 97.0999 41.7 101.5 39.5C103.8 38.4 108.8 34.3 110.9 35.6C107.6 39.5 104.3 43.3 101.1 47.1Z" fill="#DC6243"/>
    <path d="M97.2999 39.8C92.7999 35.2 104 35.6 105.8 34C107.1 34.4 116.6 25.7 118.9 26.3C117.2 28.2 113.7 34.4 111.1 34.4C109.1 34.4 107.1 34.1 105.6 35.5C103.4 37.6 99.6999 38.6 97.2999 39.8Z" fill="#F49774"/>
    <path d="M98.7999 34.2C96.2999 35.5 93.9999 30.3 98.2999 30.8C101.1 31.1 104 30.6 106.6 31C104.6 33.3 101.9 34.6 98.7999 34.2Z" fill="#F4B1A4"/>
    <path d="M111.4 52.5C111.6 53.1 111.7 53.8 111.6 54.5C111.5 55.4 110.6 57.4 109.4 56.8C108.2 56.2 107.2 55.1 106.2 54.2C107 53.3 107.7 52.5 109.1 52.9C109.5 53 109.8 52.9 109.4 52.6C109 52.4 106.3 50.6 106.1 50.8C105.8 51.1 106.6 51.7 106.3 52.3C106.1 52.7 105.7 53.1 105.4 53.5C104.7 52.9 103.5 52.2 104.3 51.2C104.8 50.5 105.6 50 106.4 49.9C107 49.8 108.2 50.3 108.4 49.7C107.3 49.2 106.2 48.7 105.1 48.1C105.3 48.9 101.8 52.6 101 53.6C100.9 53.7 100.3 54.2 100.3 54.4C100.3 54.8 100.9 54.5 101 54.5C101.5 54.3 107.8 59.6 108 60C108.1 60.3 107.8 60.6 108 60.7C108 60.7 108.2 60.9 108.3 60.9C108.7 60.4 112.8 54.9 113.7 54.7C112.9 53.5 112.1 52.3 111.3 51C110.7 51.3 111.3 52 111.4 52.5Z" fill="white"/>
    <path d="M105.2 59.2C103.1 57.9 99.5999 60.5 99.0999 60.7C98.0999 61.2 97.2999 60.2 97.7999 59.2C98.2999 58.4 99.1999 58 100.1 57.9C100.4 57.9 101.4 58.1 101.6 57.9C101.7 57.7 101.8 57.7 101.6 57.6C100.7 57 99.8999 56.4 98.9999 55.9C98.7999 57 97.5999 57.6 96.8999 58.3C96.0999 59.2 95.3999 60.2 95.3999 61.5C95.3999 62.6 96.0999 63.6 97.0999 64.2C98.1999 64.8 99.3999 64.3 100.4 63.7C101 63.3 101.7 62.8 102.3 62.5C103.3 62 104.6 62.4 104.3 63.8C104 64.9 102.9 65.9 101.9 66.1C101.3 66.3 100.6 66.2 99.9999 66C99.5999 65.9 98.9999 65.3 98.7999 65.9C99.9999 66.7 101.1 67.6 102.3 68.4C102.4 67.6 102.8 67.3 103.4 66.8C104.1 66.2 104.8 65.5 105.4 64.7C106.6 63 107 60.6 105.2 59.2Z" fill="white"/>
    <path d="M105.2 59.2C106.2 59.8 104.6 58.7 105.2 59.2V59.2Z" fill="white"/>
    <path d="M141.9 19.6C141.2 20.3 133.5 17.3 132.9 16.8C132.6 16.7 132.6 15.5 132.2 16C131.8 16.5 131.4 17 131 17.5C130.6 18 130.2 18.5 129.7 19C129.4 19.3 129.2 19.5 129.7 19.7C130.5 19.3 135.1 27 134.7 28.2C134 28.6 127.8 23.1 127.6 22.8C127.5 22.7 127.9 21.8 127.4 21.9C127.2 21.9 126.7 22.8 126.5 23C126.2 23.4 125.9 23.7 125.6 24.1C125.9 24.6 126.1 24.1 126.6 24.1C127 24.2 128.4 25.4 128.8 25.8C128.1 25.8 126.1 25.9 125.9 25.9C125 26 125.5 25.2 124.9 25C124.1 25.9 123.4 26.8 122.6 27.8C122.2 28.3 121.7 28.9 121.3 29.4C121.2 29.5 121.3 29.4 121.3 29.5C121.6 29.8 121.4 29.7 121.9 29.5C122.4 29.3 128.5 34.4 128.7 34.7C129.1 35.1 128.5 35.7 129.1 35.9C129.7 35.2 130.3 34.4 130.9 33.7C131 33.6 131 33.6 130.9 33.5C130.5 33.1 130.4 33.7 129.9 33.7C129.4 33.6 125.5 30.3 124 29.1C125.8 29 131.3 28.8 132.2 28.8C132.5 28.8 133.3 29.7 133.3 30C133.2 30.4 132.8 30.6 133.4 30.8C133.9 30.2 134.4 29.7 134.9 29.1L135.1 28.8C135.2 28.7 135.2 28.7 135.3 28.5L135.5 28.3C135.9 27.8 137.3 26.3 137.1 26.2C136.6 25.8 136.4 26.7 135.8 26.1C135.5 25.9 134.6 24.3 134.4 23.9C134.1 23.5 135 23 135.4 22.8C136.2 22.3 138.6 21.6 138.9 23.1C138.9 23.4 138.6 23.6 138.8 23.8C138.8 23.8 139 24 139.1 24C139.3 23.8 141.5 21.2 142.4 20C142.1 19.8 142 19.7 141.9 19.6ZM134.5 21.8C134.6 21.8 134.7 21.7 134.5 21.8C134.2 22 133.8 22.3 133.5 22.6C133 21.7 132.5 20.8 131.9 19.9C133.1 20.4 134.3 20.9 135.4 21.4C135.2 21.5 134.9 21.6 134.5 21.8Z" fill="white"/>
    <path d="M124.8 33C122.4 31 119.2 31.6 117.2 33.8C115.3 36.1 115.5 39.5 117.8 41.4C120.1 43.3 123.5 42.8 125.4 40.6C127.3 38.3 127.2 34.9 124.8 33ZM124.5 39.6C124.5 39.6 124.5 39.7 124.5 39.6C123.2 40.9 121.1 39.7 120 38.9C118.9 38.1 116.9 36.3 118.1 34.8C119.2 33.5 121.2 34.6 122.3 35.3C123.5 36.1 125.7 37.9 124.6 39.5C124.7 39.4 124.7 39.4 124.5 39.6Z" fill="white"/>
    <path d="M124.8 33C126 34 124.5 32.8 124.8 33V33Z" fill="white"/>
    <path d="M124.5 39.7C124.5 39.6 124.5 39.6 124.5 39.7C124.6 39.6 124.6 39.6 124.6 39.6C124.5 39.6 124.5 39.7 124.5 39.7Z" fill="white"/>
    <path d="M118.2 42.1C118.3 42.2 118.5 42.4 118.2 42.1C115.3 39.9 111.9 40.5 109.7 43.2C108.7 44.4 107.7 45.6 106.7 46.8C107.1 47.3 107.5 46.7 108 47C108.4 47.3 114.2 52.1 114.3 52.4C114.5 52.9 114 52.9 114.4 53.3C114.6 53.4 118.9 48.1 119.3 47.1C120.2 45.3 119.6 43.4 118.2 42.1ZM116.9 48.9C116.7 49.2 116.9 49 116.2 49.6C115.9 49.9 109.8 44.9 110 44.7C110.8 43.8 112.6 43.1 113.6 43.4C115.8 43.9 118.8 46.6 116.9 48.9Z" fill="white"/>
  </symbol>
  <symbol viewBox="0 0 27 35" id="logo-academy">
    <path d="M13.6 0H13.5L0 1.4V26.1L13.5 34.1L26.9 26.1V1.4L13.6 0ZM25 12.1L13.5 5.3V5.2H13.4L13.3 5.1V5.2L1.9 12.1V3.1L13.4 1.9L25 3.1V12.1ZM13.4 6.8L24.9 13.5L20.4 16.1L13.3 11.9V13.3L19.2 16.8L18.3 17.3L13.3 14.3V15.7L17.1 18L16.3 18.5L13.3 16.7V18.1L15.2 19.2L13.4 20.3L2 13.6L13.4 6.8ZM1.9 15.1L13.3 21.9V22.9L5.4 18.2V19.6L13.4 24.4V25.5L5.4 20.8V22.2L13.4 27L21.5 22.1V16.9L24.9 14.9V24.9L13.4 31.8L1.9 25V15.1Z"/>
  </symbol>
  <symbol viewBox="0 0 282 214" id="text-index">
    <path d="M101.385 42.8044L101.262 42.9267C100.403 43.844 99.4211 44.272 98.5006 44.272L100.219 41.2757C101.324 39.3801 100.28 37.5456 98.5619 37.5456C97.1504 37.5456 96.0457 38.096 95.0024 39.9304L94.0819 41.5203L93.3454 42.8044L93.2227 42.9267C91.8725 44.4555 90.5837 45.6785 89.7859 45.6785C89.3563 45.6785 89.1722 45.3727 89.6018 44.7001L93.5295 37.8514H95.0024L95.5548 36.9953H94.0205L95.7389 33.999H93.8977L92.1793 36.9953H90.5223L89.97 37.8514H91.627L87.9447 44.2109C87.1469 45.5562 87.6993 46.8403 89.1722 46.8403C90.2155 46.8403 91.4429 46.0454 92.5476 44.9447C92.5476 47.2683 95.8002 47.7575 97.7641 45.2504H98.1937C99.2984 45.2504 101.017 44.5778 101.937 43.4771C101.937 43.1713 101.63 42.9267 101.385 42.8044ZM97.4573 42.9267H97.3959C96.7822 42.9267 96.2912 43.4159 96.2912 44.0274C96.2912 44.272 96.3526 44.4555 96.4753 44.6389V44.7001C95.6161 46.1677 93.5295 45.9231 94.5728 43.9663L95.9844 41.5815L96.8436 40.1139C98.1323 37.9125 99.9121 38.7686 98.8074 40.6642L97.4573 42.9267Z" fill="#766458"/>
    <path d="M126.854 42.8042L126.731 42.9265C125.381 44.4552 123.724 45.6782 122.435 45.6782C121.331 45.6782 120.656 44.9444 121.453 43.4768L121.637 43.1711C122.803 43.6603 125.074 43.4157 126.424 41.0309L126.67 40.6028C127.652 38.8907 126.731 37.6677 125.197 37.6677C123.724 37.6677 122.558 38.4626 121.76 39.8079L119.98 42.8654L119.858 42.9877C118.508 44.5164 117.219 45.7394 116.421 45.7394C115.991 45.7394 115.807 45.4336 116.237 44.761L118.876 40.1136C119.674 38.7072 118.937 37.7288 117.894 37.7288C117.096 37.7288 116.237 38.1569 115.316 39.1353L118.262 34.0599H116.421L111.327 42.8042L111.204 42.9265C109.854 44.4552 108.565 45.6782 107.768 45.6782C107.338 45.6782 107.154 45.3725 107.583 44.6998L111.511 37.8511H112.984L113.536 36.995H112.002L113.721 33.9987H111.879L110.161 36.995H108.504L107.952 37.8511H109.609L105.926 44.2106C105.129 45.5559 105.681 46.8401 107.154 46.8401C107.89 46.8401 108.688 46.4732 109.486 45.8617L108.995 46.6566H110.836L113.598 41.8258C116.421 38.2792 117.648 38.7684 116.912 40.1136L114.518 44.2718C113.721 45.6171 114.273 46.9012 115.746 46.9012C116.851 46.9012 118.078 46.0451 119.183 44.9444C119.244 46.1063 120.226 46.9012 121.699 46.9012C123.785 46.9012 125.872 45.3113 127.345 43.538C127.406 43.1711 127.099 42.9265 126.854 42.8042ZM123.356 40.2359C124.399 38.4015 126.302 38.7072 125.197 40.6028L124.951 41.0309C124.092 42.4985 122.865 42.4985 122.19 42.2539L123.356 40.2359Z" fill="#766458"/>
    <path d="M193.81 42.8044L193.687 42.9267C193.012 43.7217 192.214 44.3943 191.478 44.9446C192.091 43.1713 191.907 40.5419 193.073 38.1571L191.723 37.4233C190.987 38.4628 189.33 40.8476 187.611 42.8044L187.488 42.9267C186.138 44.4554 184.849 45.6784 184.052 45.6784C183.622 45.6784 183.438 45.3727 183.868 44.7L187.795 37.8513H185.954L182.701 43.5382C181.29 44.8223 180.247 45.495 179.878 45.3727C179.449 45.1892 179.878 44.5166 180.124 44.0886L183.683 37.8513H181.842L178.958 42.8044L178.835 42.9267C177.976 43.844 176.994 44.272 176.073 44.272L177.792 41.2757C178.896 39.3801 177.853 37.5456 176.135 37.5456C174.723 37.5456 173.619 38.0959 172.575 39.9304L171.655 41.5203L170.918 42.8044L170.796 42.9267C169.445 44.4554 167.788 45.6784 166.5 45.6784C165.395 45.6784 164.72 44.9446 165.518 43.4771L165.702 43.1713C166.868 43.6605 169.138 43.4159 170.489 41.0311L170.734 40.6031C171.716 38.8909 170.796 37.6679 169.261 37.6679C167.788 37.6679 166.622 38.4628 165.824 39.8081L164.045 42.8656L163.922 42.9879C162.388 44.7612 161.099 45.8619 159.626 46.4734L163.738 39.4412H162.633C162.633 38.7074 161.835 37.6679 160.731 37.6679C159.749 37.6679 158.337 38.4628 157.601 39.8081L155.821 42.8656L155.698 42.9879C154.348 44.5166 153.059 45.7396 152.261 45.7396C151.832 45.7396 151.648 45.4338 152.077 44.7612L153.918 41.5814C154.532 40.4808 154.225 39.8081 153.673 39.0743L152.63 37.8513C152.384 37.5456 152.384 37.1175 152.752 36.8118L151.77 35.7723C150.727 36.6895 150.666 37.729 151.28 38.5851L151.464 38.7686C150.666 39.9304 149.561 41.4591 148.334 42.8656L148.211 42.9879C147.352 43.9051 146.37 44.3332 145.449 44.3332L147.168 41.3368C148.272 39.4412 147.229 37.6067 145.511 37.6067C144.099 37.6067 142.994 38.1571 141.951 39.9916L141.031 41.5814L140.294 42.8656L140.171 42.9879C138.637 44.7612 137.348 45.8619 135.875 46.4734L139.987 39.4412H138.883C138.883 38.7074 138.085 37.6679 136.98 37.6679C135.998 37.6679 134.587 38.4628 133.85 39.8081L131.273 44.272C130.475 45.6173 131.027 46.9014 132.5 46.9014C132.991 46.9014 133.605 46.6568 134.28 46.2899L133.789 47.146C131.334 47.8798 129.738 48.9193 129.738 50.2646C129.738 52.038 132.439 52.4048 133.789 50.1423L135.2 47.7575C136.673 47.3295 138.085 46.4122 139.619 45.0058C139.619 47.3295 142.872 47.8187 144.836 45.3115H145.265C146.37 45.3115 148.088 44.6389 149.009 43.5382C149.868 42.4987 150.604 41.5814 152.077 39.6247L152.323 39.9304C152.568 40.2362 152.63 40.6031 152.446 40.9699L150.482 44.3332C149.684 45.6784 150.236 46.9626 151.709 46.9626C152.63 46.9626 153.673 46.3511 154.655 45.495C154.655 46.3511 155.207 46.9626 156.251 46.9626C156.742 46.9626 157.355 46.718 158.03 46.3511L157.601 47.0849C155.146 47.8187 153.55 48.8582 153.55 50.2035C153.55 51.9768 156.251 52.3437 157.601 50.0812L159.012 47.6964C160.485 47.2072 161.958 46.3511 163.492 44.8835C163.554 46.0453 164.474 46.8403 166.009 46.8403C167.481 46.8403 169.016 45.9842 170.243 44.8835C170.182 47.2683 173.496 47.7575 175.46 45.2504H175.889C176.442 45.2504 177.239 45.0669 177.915 44.7C177.424 45.9842 177.853 46.8403 178.896 46.8403C179.878 46.8403 181.044 45.923 181.904 45.0669C181.72 46.0453 182.333 46.8403 183.499 46.8403C185.034 46.8403 186.752 45.2504 188.286 43.4771C189.33 42.2541 190.25 40.9699 190.925 40.1139C190.189 42.0095 190.618 45.4338 188.839 45.4338C188.225 45.4338 187.979 44.7612 187.979 44.7612L186.813 45.3727C186.813 45.3727 187.12 46.8403 188.839 46.8403C189.023 46.8403 189.145 46.8403 189.33 46.7791H189.391C191.293 46.5345 193.135 45.0669 194.485 43.4771C194.423 43.1713 194.117 42.8656 193.81 42.8044ZM167.481 40.2362C168.525 38.4017 170.427 38.7074 169.323 40.6031L169.077 41.0311C168.218 42.4987 166.991 42.4987 166.315 42.2541L167.481 40.2362ZM132.377 49.7754C132.009 50.4481 131.395 50.3869 131.395 49.8366C131.395 49.3474 131.825 48.797 133.236 48.2467L132.377 49.7754ZM133.236 45.6784C132.807 45.6784 132.623 45.3727 133.052 44.7L135.63 40.2362C136.612 38.524 138.576 38.952 137.655 40.6031L136.244 43.049C135.139 44.8223 133.973 45.6784 133.236 45.6784ZM144.529 42.9267H144.467C143.854 42.9267 143.363 43.4159 143.363 44.0274C143.363 44.272 143.424 44.4555 143.547 44.6389V44.7C142.688 46.1676 140.601 45.923 141.644 43.9663L143.056 41.5814L143.915 40.1139C145.204 37.9125 146.984 38.7686 145.879 40.6642L144.529 42.9267ZM156.066 49.7754C155.698 50.4481 155.085 50.3869 155.085 49.8366C155.085 49.3474 155.514 48.797 156.926 48.2467L156.066 49.7754ZM156.926 45.6784C156.496 45.6784 156.312 45.3727 156.742 44.7L159.319 40.2362C160.301 38.524 162.265 38.952 161.344 40.6031L159.933 43.049C158.828 44.8223 157.662 45.6784 156.926 45.6784ZM175.03 42.9267H174.969C174.355 42.9267 173.864 43.4159 173.864 44.0274C173.864 44.272 173.925 44.4555 174.048 44.6389V44.7C173.189 46.1676 171.102 45.923 172.146 43.9663L173.557 41.5814L174.416 40.1139C175.705 37.9125 177.485 38.7686 176.38 40.6642L175.03 42.9267Z" fill="#766458"/>
    <path d="M79.8437 40.8469H62.1074V42.0699H79.8437V40.8469Z" fill="#766458"/>
    <path d="M219.156 40.8469H201.42V42.0699H219.156V40.8469Z" fill="#766458"/>
    <path d="M100.035 0H104.76L104.024 27.456H95.1252L93.8978 16.1434L92.6704 27.456H83.7102L83.0351 0H87.6993L88.0675 22.7475H88.5585L91.5657 0H96.2299L99.2371 22.7475H99.728L100.035 0Z" fill="#81B3D3"/>
    <path d="M119.551 22.7475V27.5171H106.724V0H119.551V4.70849H111.388V11.3126H117.894V16.0211H111.388V22.6864H119.551V22.7475Z" fill="#81B3D3"/>
    <path d="M132.684 22.7475V27.5171H121.453V0H126.118V22.7475H132.684Z" fill="#81B3D3"/>
    <path d="M142.626 17.3664L147.352 16.2657V24.582C147.352 26.1719 146.002 27.456 144.467 27.456H137.41C135.814 27.456 134.525 26.1107 134.525 24.582V2.87401C134.525 1.28413 135.814 0 137.41 0H144.467C146.002 0 147.352 1.28413 147.352 2.87401V8.43859L142.626 9.53928V4.64734H139.251V22.6864H142.626V17.3664Z" fill="#81B3D3"/>
    <path d="M160.117 0C161.651 0 163.001 1.28413 163.001 2.87401V24.5208C163.001 26.1107 161.651 27.3948 160.117 27.3948H153.059C151.464 27.3948 150.175 26.0496 150.175 24.5208V2.87401C150.175 1.28413 151.464 0 153.059 0H160.117ZM158.276 4.70849H154.901V22.7475H158.276V4.70849Z" fill="#81B3D3"/>
    <path d="M178.344 0H183.009V27.456H178.344V13.942L176.442 20.913H171.839L169.998 13.942V27.456H165.334V0H169.998L174.171 13.2694L178.344 0Z" fill="#81B3D3"/>
    <path d="M198.167 22.7475V27.5171H185.341V0H198.167V4.70849H190.005V11.3126H196.51V16.0211H190.005V22.6864H198.167V22.7475Z" fill="#81B3D3"/>
    <path d="M27.1874 96.3723C24.978 94.5378 22.2163 93.3148 19.2705 93.3148C17.0612 93.3148 14.1767 94.5989 14.1767 97.1672C14.1767 99.8578 17.4294 100.897 19.4546 101.509L22.5232 102.426C28.9058 104.322 33.8768 107.501 33.8768 114.9C33.8768 119.425 32.7721 124.134 29.1513 127.191C25.5304 130.249 20.7434 131.472 16.1406 131.472C10.3717 131.472 4.6642 129.515 0 126.274L4.97106 116.796C7.97824 119.426 11.4764 121.505 15.5882 121.505C18.4113 121.505 21.3571 120.098 21.3571 116.918C21.3571 113.555 16.6929 112.454 14.1153 111.721C6.62807 109.519 1.71839 107.624 1.71839 98.7571C1.71839 89.4624 8.34646 83.4086 17.5521 83.4086C22.155 83.4086 27.8625 84.8762 31.913 87.1999L27.1874 96.3723Z" fill="white"/>
    <path d="M56.2158 94.6602V102.304H69.6561V112.393H56.2158V120.282H70.4539V130.371H44.3098V84.6317H70.4539V94.7213L56.2158 94.6602Z" fill="white"/>
    <path d="M79.2914 84.6317H96.2298C108.995 84.6317 119.551 94.6602 119.551 107.502C119.551 120.343 108.934 130.371 96.2298 130.371H79.2914V84.6317ZM91.2587 120.282H93.9591C101.078 120.282 107.154 116.368 107.154 107.502C107.154 99.3075 101.753 94.7213 94.0818 94.7213H91.2587V120.282Z" fill="white"/>
    <path d="M175.951 106.645C175.951 121.443 165.272 131.9 150.543 131.9C135.814 131.9 125.136 121.443 125.136 106.645C125.136 92.8255 137.348 83.1028 150.543 83.1028C163.738 83.1028 175.951 92.8255 175.951 106.645ZM137.533 106.706C137.533 114.595 143.363 120.343 150.482 120.343C157.601 120.343 163.431 114.595 163.431 106.706C163.431 100.408 157.601 94.5989 150.482 94.5989C143.424 94.5989 137.533 100.408 137.533 106.706Z" fill="white"/>
    <path d="M182.272 84.6317H194.239L216.087 112.638H216.21V84.6317H228.178V130.371H216.21L194.362 102.304H194.239V130.371H182.272V84.6317Z" fill="white"/>
    <path d="M249.842 122.422L246.65 130.371H234.008L251.683 84.6317H264.693L282 130.371H269.296L266.289 122.422H249.842ZM258.188 98.7572H258.065L253.156 113.311H263.098L258.188 98.7572Z" fill="white"/>
    <path d="M66.2196 175.926C70.9451 174.336 71.252 168.466 66.6492 168.466C65.3604 168.466 63.8261 169.383 62.7828 171.156L56.5229 181.98C56.2161 182.469 55.9706 182.897 55.6024 183.325C54.0067 181.124 54.4363 177.821 56.707 176.354L55.7865 175.192C50.8768 178.311 52.3497 187.238 60.5121 187.238C67.447 187.238 70.6996 178.922 66.2196 175.926ZM60.4507 185.465C59.0391 185.465 57.9958 185.159 57.0753 184.67C57.5049 184.181 57.8731 183.631 58.2413 183.019L62.1691 176.232L62.7828 176.293C68.2448 177.455 66.0968 185.465 60.4507 185.465ZM62.9669 174.886L64.8694 171.645C66.5878 168.71 68.7358 170.422 67.5697 172.624C66.6492 174.336 65.3604 174.825 62.9669 174.886Z" fill="white"/>
    <path d="M85.9196 183.448C85.5514 184.794 86.2878 185.955 87.8221 185.955C88.7427 185.955 89.9087 185.344 91.0748 184.427C91.1975 185.344 91.9339 185.955 93.1 185.955C94.3274 185.955 95.6776 185.099 97.0278 183.876C96.7823 185.099 97.3346 185.955 98.5007 185.955C99.7894 185.955 101.201 184.794 102.306 183.754C102.06 184.977 102.797 185.955 104.27 185.955C106.172 185.955 108.381 183.876 110.345 181.675C110.345 181.614 110.284 181.614 110.284 181.553C111.573 180.085 112.677 178.495 113.537 177.394C112.616 179.779 113.107 184.121 110.898 184.121C110.1 184.121 109.793 183.265 109.793 183.265L108.32 183.999C108.32 183.999 108.75 185.894 110.898 185.894C111.143 185.894 111.327 185.894 111.573 185.833H111.634C113.352 185.588 115.009 184.549 116.482 183.265C116.544 184.794 117.71 185.894 119.612 185.894C122.251 185.894 124.89 183.815 126.793 181.614C126.609 181.308 126.24 180.941 125.934 180.819L125.749 181.002C124.092 182.959 121.944 184.488 120.287 184.488C118.876 184.488 118.017 183.571 119.06 181.736L119.305 181.308C120.778 181.919 123.601 181.614 125.381 178.617L125.688 178.067C126.915 175.927 125.749 174.337 123.847 174.337C121.944 174.337 120.471 175.315 119.49 177.028L117.219 180.88H117.157L116.973 181.063C116.114 182.042 115.071 182.959 114.15 183.571C114.887 181.369 114.703 177.945 116.176 175.01L114.457 174.092C113.475 175.438 111.389 178.434 109.302 180.88L109.363 180.941L109.302 181.063C107.645 183.02 105.988 184.549 104.945 184.549C104.454 184.549 104.147 184.182 104.699 183.265L109.67 174.582H107.338L103.226 181.797C101.446 183.387 100.096 184.304 99.6667 184.121C99.1144 183.876 99.6667 183.02 99.9736 182.531L104.515 174.643H102.183L98.5007 181.002C98.4393 180.941 98.3779 180.941 98.3165 180.88L98.1324 181.063C96.4754 183.02 94.8184 184.549 93.7751 184.549C93.2841 184.549 92.9773 184.182 93.5296 183.265L97.2732 176.722H95.9231C95.9844 175.743 95.0025 174.398 93.4682 174.398C92.2408 174.398 90.461 175.377 89.4791 177.089L87.147 181.125C87.0243 181.002 86.9015 180.941 86.7788 180.88L86.5947 181.063C84.9377 183.02 82.7897 184.549 81.1326 184.549C79.7211 184.549 78.8619 183.632 79.9052 181.797L82.2987 177.639C83.6489 175.315 86.0423 175.743 84.6308 178.128L84.3239 178.679H86.2264L86.5333 178.128C87.7607 175.988 86.5947 174.398 84.6922 174.398C82.7897 174.398 81.3168 175.377 80.3348 177.089L78.0027 181.063C77.9414 181.002 77.88 181.002 77.8186 180.941L77.6345 181.125C75.9775 183.081 73.8295 184.61 72.1725 184.61C70.7609 184.61 69.9017 183.693 70.9451 181.858L71.1905 181.43C72.6634 182.042 75.4865 181.736 77.2663 178.74L77.5731 178.189C78.8005 176.049 77.6345 174.459 75.732 174.459C73.8295 174.459 72.3566 175.438 71.3746 177.15L68.9198 181.308C67.4469 183.754 68.7357 186.078 71.4974 186.078C73.5226 186.078 75.6092 184.855 77.2663 183.265C77.2049 184.855 78.4323 186.078 80.3962 186.078C82.3601 185.955 84.2626 184.855 85.9196 183.448ZM121.515 177.578C122.865 175.254 125.258 175.682 123.847 178.067L123.54 178.617C122.435 180.513 120.901 180.452 120.042 180.146L121.515 177.578ZM88.2517 183.265L91.5044 177.639C92.7318 175.499 95.248 176.049 94.0819 178.128L92.2408 181.308C90.8293 183.509 89.4177 184.549 88.4972 184.549C88.0062 184.488 87.6993 184.182 88.2517 183.265ZM73.3999 177.578C74.7501 175.254 77.1435 175.682 75.732 178.067L75.4251 178.617C74.3205 180.513 72.7862 180.452 71.927 180.146L73.3999 177.578Z" fill="white"/>
    <path d="M152.323 185.954C154.962 185.954 157.601 183.875 159.503 181.674C159.319 181.368 158.951 181.001 158.644 180.879L158.46 181.062C156.803 183.019 154.655 184.548 152.998 184.548C151.587 184.548 150.727 183.63 151.771 181.796L152.016 181.368C153.489 181.979 156.312 181.674 158.092 178.677L158.399 178.127C159.626 175.987 158.46 174.397 156.558 174.397C154.655 174.397 153.182 175.375 152.2 177.087L149.93 180.94C149.93 180.94 149.868 180.94 149.868 180.879L149.684 181.062C148.027 183.019 146.37 184.548 145.327 184.548C144.836 184.548 144.529 184.181 145.081 183.263L148.457 177.393C149.439 175.62 148.518 174.336 147.229 174.336C146.247 174.336 145.143 174.886 143.977 176.109L147.72 169.688H145.327L138.76 181.001C138.699 180.94 138.576 180.879 138.515 180.817L138.33 181.001C136.673 182.958 135.016 184.486 133.973 184.486C133.482 184.486 133.175 184.12 133.728 183.202L138.699 174.519H140.601L141.276 173.418H139.374L141.583 169.627H139.251L137.042 173.418H134.955L134.28 174.519H136.428L131.764 182.591C130.782 184.303 131.457 185.893 133.359 185.893C134.525 185.893 135.753 185.159 137.042 184.058L136.121 185.648H138.453L142.013 179.533C145.572 175.069 147.168 175.62 146.186 177.332L143.179 182.591C142.197 184.303 142.872 185.893 144.774 185.893C146.186 185.893 147.782 184.792 149.254 183.325C149.254 184.853 150.421 185.954 152.323 185.954ZM154.226 177.577C155.576 175.253 157.969 175.681 156.558 178.066L156.251 178.616C155.146 180.512 153.612 180.451 152.753 180.145L154.226 177.577Z" fill="white"/>
    <path d="M222.9 180.879L222.716 181.063C221.059 183.019 219.402 184.548 218.358 184.548C217.867 184.548 217.561 184.181 218.113 183.264L225.968 169.689H223.636L220.199 175.559C219.77 174.886 219.033 174.336 218.051 174.336C216.824 174.336 215.044 175.315 214.062 177.027L211.792 180.94C211.73 180.94 211.669 180.879 211.669 180.879L211.485 181.063C209.828 183.019 208.171 184.548 207.127 184.548C206.636 184.548 206.33 184.181 206.882 183.264L210.257 177.394C211.239 175.62 210.319 174.336 209.03 174.336C208.048 174.336 206.943 174.886 205.777 176.048L206.636 174.52H204.304L200.561 180.94C200.499 180.879 200.438 180.818 200.315 180.818L200.131 181.001C198.474 182.958 196.817 184.487 195.774 184.487C195.283 184.487 194.976 184.12 195.528 183.203L199.272 176.66H198.106C198.167 175.681 197.185 174.336 195.651 174.336C194.424 174.336 192.644 175.315 191.662 177.027L189.391 180.879L189.268 181.001C187.611 182.958 185.954 184.487 184.911 184.487C184.42 184.487 184.113 184.12 184.666 183.203L186.998 179.167C187.796 177.76 187.427 176.966 186.691 176.048L185.402 174.458C185.095 174.03 185.095 173.541 185.525 173.113L184.297 171.768C182.947 172.93 182.886 174.275 183.684 175.315L183.868 175.559C182.824 177.027 181.474 178.983 179.94 180.757C180.001 180.818 180.063 180.879 180.124 180.94C178.222 183.142 176.565 184.548 174.724 185.343L177.669 180.329H175.399L175.153 180.757C173.926 182.897 172.514 184.487 170.673 184.487C169.077 184.487 168.771 182.897 170.182 180.512L170.857 179.35C171.287 179.412 171.716 179.473 172.207 179.473C180.492 179.473 184.482 168.405 177.178 168.405C175.89 168.405 174.355 169.322 173.312 171.095L169.691 177.332C168.341 176.599 167.604 175.315 167.604 174.03C167.604 172.93 168.095 171.89 169.077 171.095L168.341 169.75C166.684 170.912 165.947 172.502 165.947 174.092C165.947 175.926 166.991 177.699 168.893 178.678L168.218 179.901C166.561 182.714 166.868 185.832 170.182 185.832C171.164 185.832 172.023 185.526 172.698 185.098L172.085 186.138C168.955 187.116 166.991 188.339 166.991 190.113C166.991 192.314 170.428 192.803 172.085 189.929L173.864 186.872C176.258 186.138 178.651 184.487 181.229 181.491C181.167 181.429 181.167 181.368 181.106 181.246C182.149 180.023 183.009 178.861 184.788 176.476L185.095 176.843C185.402 177.21 185.525 177.699 185.218 178.189L182.763 182.469C181.781 184.181 182.456 185.771 184.359 185.771C185.525 185.771 186.814 185.037 188.041 183.937C188.041 184.976 188.716 185.771 190.066 185.771C190.987 185.771 192.153 185.16 193.319 184.242C193.442 185.16 194.178 185.771 195.344 185.771C196.449 185.771 197.676 185.098 198.842 184.059L197.983 185.526H200.315L203.875 179.35C207.434 174.886 209.03 175.498 207.987 177.21L204.979 182.469C203.998 184.181 204.673 185.771 206.575 185.771C207.802 185.771 209.153 184.915 210.503 183.753C210.38 184.915 211.117 185.771 212.528 185.771C213.449 185.771 214.615 185.16 215.781 184.242C215.903 185.16 216.64 185.771 217.806 185.771C219.708 185.771 221.918 183.692 223.882 181.491C223.636 181.368 223.207 181.001 222.9 180.879ZM175.092 172.196C175.767 171.034 176.565 170.484 177.178 170.484C180.861 170.484 178.283 178.005 172.207 178.005H171.716L175.092 172.196ZM170.121 189.685C169.63 190.541 168.832 190.418 168.832 189.807C168.832 189.195 169.384 188.523 171.164 187.85L170.121 189.685ZM194.485 181.246C193.073 183.447 191.662 184.487 190.741 184.487C190.25 184.487 189.944 184.12 190.496 183.203L193.749 177.577C194.976 175.437 197.492 175.987 196.326 178.066L194.485 181.246ZM217.008 181.124C215.597 183.447 214.185 184.487 213.203 184.487C212.712 184.487 212.405 184.12 212.958 183.203L216.21 177.577C217.438 175.437 219.954 175.987 218.788 178.066L217.008 181.124Z" fill="white"/>
    <path d="M145.143 202.893L144.959 203.076C143.302 205.033 141.645 206.561 140.601 206.561C140.11 206.561 139.803 206.195 140.356 205.277L143.731 199.407C144.713 197.634 143.793 196.35 142.504 196.35C141.522 196.35 140.417 196.9 139.251 198.062L140.11 196.533H137.778L134.035 203.015C133.912 202.954 133.85 202.893 133.728 202.831L133.544 203.015C132.5 204.177 131.211 204.727 130.045 204.727L132.255 200.936C133.666 198.49 132.378 196.227 130.168 196.227C128.388 196.227 126.977 196.961 125.627 199.285L124.461 201.242L123.479 202.954C123.417 202.893 123.356 202.893 123.295 202.831L123.111 203.015C121.208 205.216 119.551 206.623 117.71 207.418L124.092 196.533H121.76L117.648 203.687C115.869 205.339 114.457 206.256 114.028 206.072C113.475 205.828 114.028 204.972 114.334 204.482L118.876 196.594H116.544L112.8 203.015C112.739 202.954 112.677 202.954 112.616 202.893L112.432 203.076C110.775 205.033 109.118 206.561 108.075 206.561C107.584 206.561 107.277 206.195 107.829 205.277L111.205 199.407C112.186 197.634 111.266 196.35 109.977 196.35C108.995 196.35 107.89 196.9 106.724 198.062L107.584 196.533H105.252L101.508 202.954C101.447 202.893 101.385 202.831 101.262 202.831L101.078 203.015C99.4213 204.972 97.7643 206.5 96.721 206.5C96.23 206.5 95.9231 206.133 96.4755 205.216L100.219 198.673H98.8689C98.9303 197.695 97.9484 196.35 96.4141 196.35C95.1867 196.35 93.4069 197.328 92.425 199.04L90.0315 203.198C89.8474 203.076 89.6633 202.954 89.5405 202.893L89.3564 203.076C87.6994 205.033 85.6128 206.561 83.3421 206.561C81.7464 206.561 80.7645 204.972 82.176 202.587L82.8511 201.425C83.2807 201.486 83.7103 201.547 84.2013 201.547C86.6561 201.547 89.4792 200.263 91.3203 197.083C91.9954 195.922 92.2409 194.882 92.2409 193.965C92.2409 191.886 90.8907 190.479 89.1723 190.479C87.8835 190.479 86.3492 191.396 85.3059 193.17L81.685 199.407C80.3349 198.673 79.5984 197.389 79.5984 196.105C79.5984 195.004 80.0894 193.965 81.0713 193.17L80.3349 191.825C78.6779 192.986 77.9414 194.576 77.9414 196.166C77.9414 198.001 78.9847 199.774 80.8872 200.752L80.2121 201.975C78.5551 204.788 79.5371 207.907 82.8511 207.907C85.4287 207.907 87.3925 206.745 88.9882 205.216C88.4972 206.684 89.2337 207.907 90.8907 207.907C91.8113 207.907 92.9773 207.295 94.1434 206.378C94.2661 207.295 95.0026 207.907 96.1686 207.907C97.2733 207.907 98.5007 207.234 99.6668 206.195L98.8076 207.662H101.14L104.699 201.486C108.259 197.022 109.854 197.634 108.811 199.346L105.804 204.605C104.822 206.317 105.497 207.907 107.4 207.907C108.627 207.907 110.038 207.051 111.389 205.828C111.082 207.112 111.695 207.907 112.862 207.907C113.966 207.907 115.255 206.99 116.298 206.011L115.01 208.213C111.88 209.13 109.854 210.414 109.854 212.187C109.854 214.389 113.291 214.878 114.948 212.004L116.728 208.946C118.692 208.335 120.594 207.112 122.62 205.155C122.313 208.396 126.609 209.13 129.248 205.828H129.739C130.598 205.828 131.764 205.522 132.807 204.91L131.273 207.601H133.605L137.164 201.425C140.724 196.961 142.32 197.573 141.276 199.285L138.269 204.544C137.287 206.256 137.962 207.846 139.865 207.846C141.767 207.846 143.977 205.767 145.941 203.565C145.879 203.382 145.45 203.015 145.143 202.893ZM87.2084 194.209C87.8835 193.048 88.6813 192.497 89.2951 192.497C90.1542 192.497 90.5838 193.048 90.5838 193.904C90.5838 196.044 87.9449 199.957 84.324 199.957H83.833L87.2084 194.209ZM95.4322 203.259C94.0206 205.461 92.6091 206.5 91.6885 206.5C91.1976 206.5 90.8907 206.133 91.443 205.216L94.6957 199.59C95.9231 197.45 98.4393 198.001 97.2733 200.08L95.4322 203.259ZM113.107 211.698C112.616 212.554 111.818 212.432 111.818 211.82C111.818 211.209 112.371 210.536 114.15 209.864L113.107 211.698ZM128.818 203.015H128.695C127.959 203.015 127.345 203.626 127.345 204.421C127.345 204.727 127.406 204.972 127.591 205.216V205.277C126.486 207.173 123.847 206.806 125.197 204.36L126.977 201.303L128.082 199.407C129.739 196.655 131.948 197.756 130.536 200.141L128.818 203.015Z" fill="white"/>
    <path d="M199.088 203.688C198.965 203.322 198.536 202.955 198.229 202.893L198.045 203.077C197.185 204.055 196.142 204.973 195.221 205.584C195.958 203.383 195.774 199.958 197.247 197.023L195.528 196.106C194.546 197.451 192.46 200.448 190.373 202.893L190.189 203.077C188.532 205.034 186.875 206.562 185.832 206.562C185.341 206.562 184.85 206.073 184.85 204.973V203.994C186.507 204.178 188.225 203.138 189.33 201.242L189.944 200.142C192.092 196.412 188.593 195.189 186.2 197.39L189.514 191.642H187.182L180.554 203.138C180.431 203.016 180.247 202.893 180.124 202.832L179.94 203.016C178.283 204.973 176.135 206.501 174.478 206.501C173.067 206.501 172.207 205.584 173.251 203.75L175.644 199.591C176.994 197.268 179.388 197.696 177.976 200.081L177.669 200.631H179.572L179.879 200.081C181.106 197.94 179.94 196.351 178.038 196.351C176.135 196.351 174.662 197.329 173.68 199.041L171.409 202.955C171.348 202.955 171.287 202.893 171.287 202.893L171.103 203.077C169.446 205.034 167.789 206.562 166.745 206.562C166.254 206.562 165.947 206.196 166.5 205.278L171.471 196.595H169.139L165.027 203.811C163.247 205.401 161.897 206.318 161.467 206.134C160.915 205.89 161.467 205.034 161.774 204.545L166.316 196.656H163.984L159.442 204.422C158.951 204.85 158.399 205.278 157.969 205.645C158.706 203.444 158.522 200.019 159.994 197.084L158.276 196.167C157.294 197.512 151.955 204.606 149.807 207.052C149.991 207.357 150.359 207.602 150.666 207.847C152.016 206.318 156.435 200.631 157.233 199.53C156.312 201.915 156.803 206.257 154.594 206.257C153.796 206.257 153.489 205.401 153.489 205.401L152.016 206.134C152.016 206.134 152.446 208.03 154.594 208.03C154.839 208.03 155.023 208.03 155.269 207.969H155.33C156.496 207.785 157.662 207.296 158.767 206.501C158.767 207.419 159.319 208.03 160.301 208.03C161.59 208.03 163.002 206.868 164.106 205.829C163.861 207.052 164.597 208.03 166.07 208.03C167.543 208.03 169.139 206.868 170.673 205.339C170.673 206.868 171.9 208.03 173.803 208.03C175.705 208.03 177.547 206.99 179.204 205.584L177.915 207.847H180.247L182.886 203.26V205.095C182.886 207.052 183.254 208.091 185.157 208.091C187.059 208.091 189.268 206.012 191.232 203.811C192.583 202.282 193.687 200.692 194.546 199.591C193.626 201.976 194.117 206.318 191.907 206.318C191.11 206.318 190.803 205.462 190.803 205.462L189.33 206.196C189.33 206.196 189.759 208.091 191.907 208.091C192.153 208.091 192.337 208.091 192.583 208.03H192.644C194.976 207.602 197.369 205.706 199.088 203.688ZM183.622 201.854L184.297 200.692C186.998 196.962 188.839 198.002 187.98 199.408L186.875 201.304C186.2 202.527 184.175 203.383 183.622 201.854Z" fill="white"/>
    <path d="M199.026 205.278C198.29 205.278 197.676 205.89 197.676 206.623C197.676 207.357 198.229 207.969 199.026 207.969C199.763 207.969 200.377 207.418 200.377 206.623C200.377 205.89 199.763 205.278 199.026 205.278Z" fill="white"/>
    <path d="M199.149 204.36H201.481L208.785 191.702H206.452L199.149 204.36Z" fill="white"/>
    <path d="M49.2196 169.751C49.2196 169.934 49.1582 170.117 49.0968 170.301C49.0354 170.484 48.9127 170.668 48.79 170.79C48.6672 170.912 48.4831 171.035 48.299 171.157C48.1149 171.218 47.8694 171.279 47.6239 171.279C47.3171 171.279 47.0716 171.218 46.8261 171.096C46.5806 170.974 46.3351 170.851 46.151 170.668C45.9669 170.484 45.9055 170.301 45.7828 170.056C45.7214 169.812 45.66 169.567 45.66 169.261C45.66 168.711 45.7828 168.283 45.9669 167.794C46.151 167.366 46.3965 166.938 46.7647 166.632C46.8875 166.51 47.0716 166.326 47.2557 166.204C47.4398 166.082 47.6239 165.959 47.808 165.898C47.9921 165.837 48.1149 165.715 48.2376 165.654C48.3604 165.592 48.4217 165.592 48.4831 165.531L49.3423 166.754C49.2196 166.815 49.0354 166.877 48.8513 166.999C48.6672 167.06 48.4831 167.182 48.299 167.305C48.1149 167.427 47.9921 167.61 47.8694 167.794C47.7466 167.977 47.6853 168.161 47.6853 168.405C48.1149 168.405 48.4217 168.528 48.7286 168.772C49.0968 168.956 49.2196 169.323 49.2196 169.751ZM54.0679 169.751C54.0679 169.934 54.0065 170.117 53.9451 170.301C53.8838 170.484 53.761 170.668 53.6383 170.79C53.5155 170.912 53.3314 171.035 53.1473 171.157C52.9632 171.218 52.7177 171.279 52.4722 171.279C52.1654 171.279 51.9199 171.218 51.6744 171.096C51.4289 170.974 51.1834 170.851 50.9993 170.668C50.8766 170.484 50.7538 170.301 50.6311 170.056C50.5697 169.812 50.5083 169.567 50.5083 169.261C50.5083 168.711 50.6311 168.283 50.8152 167.794C50.9993 167.366 51.2448 166.938 51.613 166.632C51.7358 166.51 51.9199 166.326 52.104 166.204C52.2881 166.082 52.4722 165.959 52.6563 165.898C52.8404 165.837 52.9632 165.715 53.0859 165.654C53.2087 165.592 53.27 165.592 53.3314 165.531L54.1906 166.754C54.0679 166.815 53.8838 166.877 53.6996 166.999C53.5155 167.06 53.3314 167.182 53.1473 167.305C52.9632 167.427 52.8404 167.61 52.7177 167.794C52.595 167.977 52.5336 168.161 52.5336 168.405C52.9632 168.405 53.27 168.528 53.5769 168.772C53.8838 168.956 54.0679 169.323 54.0679 169.751Z" fill="white"/>
    <path d="M216.763 205.767C216.763 205.584 216.824 205.4 216.885 205.217C216.947 205.033 217.069 204.85 217.192 204.728C217.315 204.605 217.499 204.483 217.683 204.361C217.867 204.3 218.113 204.239 218.358 204.239C218.665 204.239 218.911 204.3 219.156 204.422C219.402 204.544 219.647 204.667 219.831 204.85C220.015 205.033 220.077 205.217 220.199 205.462C220.261 205.706 220.322 205.951 220.322 206.256C220.322 206.807 220.199 207.235 220.015 207.724C219.831 208.152 219.586 208.58 219.217 208.886C219.095 209.008 218.911 209.192 218.726 209.314C218.542 209.436 218.358 209.558 218.174 209.62C217.99 209.681 217.867 209.803 217.745 209.864C217.622 209.925 217.56 209.925 217.499 209.987L216.64 208.764C216.763 208.702 216.947 208.641 217.131 208.519C217.315 208.458 217.499 208.336 217.683 208.213C217.867 208.091 217.99 207.907 218.113 207.724C218.236 207.541 218.297 207.357 218.297 207.113C217.867 207.113 217.56 206.99 217.254 206.746C216.947 206.562 216.763 206.195 216.763 205.767ZM211.976 205.767C211.976 205.584 212.037 205.4 212.098 205.217C212.16 205.033 212.282 204.85 212.405 204.728C212.528 204.605 212.712 204.483 212.896 204.361C213.08 204.3 213.326 204.239 213.571 204.239C213.878 204.239 214.124 204.3 214.369 204.422C214.615 204.544 214.86 204.667 215.044 204.85C215.167 205.033 215.29 205.217 215.412 205.462C215.474 205.706 215.535 205.951 215.535 206.256C215.535 206.807 215.412 207.235 215.228 207.724C215.044 208.152 214.799 208.58 214.43 208.886C214.308 209.008 214.124 209.192 213.94 209.314C213.755 209.436 213.571 209.558 213.387 209.62C213.203 209.681 213.08 209.803 212.958 209.864C212.835 209.925 212.773 209.925 212.712 209.987L211.853 208.764C212.037 208.702 212.16 208.641 212.344 208.519C212.528 208.458 212.712 208.336 212.896 208.213C213.08 208.091 213.203 207.907 213.326 207.724C213.449 207.541 213.51 207.357 213.51 207.113C213.08 207.113 212.773 206.99 212.467 206.746C212.098 206.562 211.976 206.195 211.976 205.767Z" fill="white"/>
  </symbol>
  <symbol viewBox="0 0 229 39" id="sedona">
    <path d="M27.3156 26.6366C27.3156 26.8879 27.2655 27.0889 27.2655 27.2899C27.0149 29.3003 26.3633 31.2603 25.3108 33.0696C24.2583 34.8789 22.8048 36.2861 21.0506 37.2912C20.399 37.5928 19.6973 37.8441 18.9956 38.0954C18.2939 38.2964 17.5923 38.4974 16.8906 38.6482C16.2891 38.7487 15.7378 38.8492 15.1364 38.8995C14.5349 38.9497 13.9836 39 13.4323 39C13.332 39 13.2318 39 13.1315 39C13.0313 39 12.9311 39 12.8308 39C10.5253 38.8995 8.21974 38.3969 5.96432 37.442C3.75903 36.4369 1.75421 35.1804 0 33.5722L4.6612 26.0838C4.71132 26.134 4.71132 26.134 4.76144 26.1843C4.76144 26.1843 4.81156 26.2345 4.86168 26.2848C5.9142 27.4407 7.11709 28.5464 8.42022 29.5013C9.72335 30.4562 11.2771 31.009 12.9812 31.1095C13.0313 31.1095 13.0814 31.1095 13.1315 31.1598C13.1817 31.1598 13.2318 31.2101 13.2819 31.2101C13.332 31.2101 13.3821 31.2101 13.4323 31.2603C13.4824 31.2603 13.5325 31.3106 13.5826 31.3106C13.733 31.3106 13.8833 31.3106 14.0838 31.2603C14.2342 31.2603 14.4347 31.2101 14.585 31.1598C15.1865 31.0593 15.7879 30.808 16.3392 30.4562C16.8906 30.1044 17.3417 29.7023 17.6424 29.1495C17.6925 29.049 17.7426 28.9987 17.7426 28.8982C17.7927 28.7977 17.8429 28.7474 17.8429 28.6469C17.9431 28.3956 17.9932 28.1443 17.9932 27.893C18.0433 27.6418 18.0433 27.4407 18.0433 27.2397C18.0433 26.1843 17.5923 25.2796 16.6901 24.576C15.7879 23.8724 14.7855 23.3196 13.733 22.9175C13.2819 22.7668 12.8809 22.616 12.5301 22.5155C12.1291 22.4149 11.7783 22.3144 11.4274 22.2642C11.3773 22.2642 11.3272 22.2642 11.3272 22.2139C11.2771 22.2139 11.227 22.1637 11.227 22.1637C9.32239 21.7113 7.51806 20.9575 5.86408 19.9021C4.21011 18.8466 3.05734 17.3892 2.40578 15.4291C2.30554 15.0271 2.2053 14.625 2.10506 14.2229C2.00482 13.7706 1.95469 13.3686 1.90457 12.866C1.85445 12.7152 1.85445 12.5644 1.85445 12.4137C1.85445 12.2629 1.85445 12.1121 1.85445 11.9613C1.85445 11.6598 1.85445 11.3582 1.90457 11.0064C1.90457 10.7049 1.95469 10.4033 2.05494 10.0515C2.15518 9.29768 2.35566 8.49356 2.65638 7.73969C2.90698 6.98582 3.25782 6.28222 3.70891 5.62887C4.96192 3.5683 6.56577 2.11082 8.52046 1.20619C10.3749 0.45232 12.4299 0 14.5349 0C15.0361 0 15.5373 0.0502577 16.0886 0.100515C16.5898 0.150773 17.1412 0.251289 17.6925 0.301546C19.0959 0.552835 20.4992 0.904639 21.8525 1.45747C23.2057 2.01031 24.5089 2.66366 25.6616 3.36727L22.4539 10.5541C21.4014 9.80026 20.2988 9.09665 19.146 8.49356C17.9932 7.89046 16.7402 7.63917 15.387 7.63917C15.2867 7.63917 15.2366 7.63917 15.1364 7.63917C15.0361 7.63917 14.986 7.63917 14.8858 7.63917C13.9836 7.73969 13.1817 8.14175 12.3797 8.84536C11.6279 9.54897 11.227 10.2526 11.227 11.0567C11.227 11.1572 11.227 11.308 11.2771 11.4085C11.2771 11.509 11.3272 11.6598 11.4274 11.7603C11.5277 12.0116 11.6279 12.2629 11.8284 12.5142C12.0289 12.7655 12.2294 12.9665 12.48 13.1675C12.9311 13.5193 13.5325 13.8209 14.3344 14.1224C15.1364 14.424 15.9884 14.6753 16.8906 14.9768C17.6424 15.1778 18.3441 15.3789 19.0457 15.5296C19.7474 15.6804 20.3489 15.8814 20.8 16.0322C22.9551 16.7861 24.6091 18.0928 25.7118 19.9021C26.8144 21.7113 27.3657 23.6211 27.4158 25.6314C27.4158 25.732 27.4158 25.7822 27.4158 25.7822C27.4158 25.8325 27.4158 25.8827 27.4158 25.8827C27.3657 26.134 27.3657 26.3853 27.3156 26.6366ZM57.3878 29.7526V38.0954H34.6332V0.904639H57.3878V9.04639H44.6071V15.5296H56.636V23.4704H44.6071V29.7526H57.3878ZM95.78 28.2951C94.5772 30.8582 92.8731 32.9691 90.6176 34.5773C88.8133 35.8338 86.8085 36.6881 84.7034 37.1405C82.5483 37.5928 80.3931 37.8943 78.2379 37.9948C77.6365 38.0451 76.9849 38.0451 76.3835 38.0451C75.782 38.0451 75.1806 38.0451 74.6292 38.0451H64.4548V0.854381H75.2808C75.8822 0.854381 76.4336 0.854381 77.035 0.854381C77.6365 0.854381 78.2379 0.854381 78.7892 0.904639C80.8943 1.00515 82.9492 1.3067 85.0042 1.75902C87.0591 2.21134 88.9136 3.06572 90.6176 4.32217C92.7728 5.8299 94.4769 7.84021 95.6798 10.3531C96.8827 12.866 97.5844 15.4291 97.7347 18.0425C97.7849 18.2938 97.7849 18.4948 97.7849 18.7461C97.7849 18.9974 97.7849 19.1985 97.7849 19.4497C97.7849 19.5503 97.7849 19.701 97.7849 19.8518C97.7849 20.0026 97.7849 20.1031 97.7849 20.2539C97.6345 23.0683 96.9829 25.732 95.78 28.2951ZM87.5603 19.0979C87.5603 18.9472 87.5603 18.7964 87.5102 18.6456C87.4099 17.1881 87.0591 15.7307 86.4576 14.3737C85.8562 13.0168 85.0042 11.9111 83.9015 11.0567C83.0996 10.4033 82.1974 9.95103 81.195 9.69974C80.1926 9.44845 79.1902 9.34794 78.1377 9.29768C77.9372 9.29768 77.7367 9.29768 77.5362 9.29768C77.3357 9.29768 77.1353 9.29768 76.9348 9.29768H74.3786V29.8028C74.4789 29.8028 74.6292 29.8028 74.7796 29.8531C74.93 29.8531 75.0302 29.9033 75.1806 29.9033C75.3309 29.9033 75.4813 29.9033 75.5815 29.9536C75.6818 29.9536 75.8321 30.0039 75.9324 30.0039C76.3333 30.0039 76.7343 30.0039 77.1353 29.9536C77.5863 29.9536 77.9873 29.9034 78.3382 29.8531C79.3406 29.7526 80.343 29.6018 81.2952 29.3505C82.2475 29.0992 83.1497 28.6469 83.9015 28.1443C85.1545 27.2397 86.0567 26.0335 86.6581 24.4755C87.2596 22.9175 87.5603 21.3093 87.5603 19.6508C87.5603 19.3995 87.5603 19.2487 87.5603 19.0979ZM142.492 21.058C142.492 21.4601 142.442 21.8621 142.342 22.2642C142.242 23.0683 142.141 23.8724 141.891 24.6765C141.69 25.4807 141.39 26.2848 141.089 27.0387C139.435 30.808 136.929 33.7229 133.471 35.8338C130.012 37.8943 126.404 38.9497 122.594 38.9497C122.344 38.9497 122.043 38.9497 121.793 38.8995C121.542 38.8995 121.291 38.8492 120.991 38.8492C119.687 38.7487 118.384 38.4974 117.081 38.1456C115.778 37.7938 114.525 37.2912 113.322 36.6881C110.064 34.9794 107.508 32.5168 105.654 29.3505C103.799 26.1843 102.847 22.8673 102.847 19.4497C102.847 18.9472 102.847 18.4446 102.897 17.942C102.947 17.4394 102.997 16.8866 103.148 16.384C103.348 15.3789 103.599 14.3737 103.95 13.3183C104.3 12.3131 104.701 11.308 105.253 10.3531C107.057 7.03608 109.513 4.5232 112.721 2.76418C115.878 1.00515 119.236 0.150773 122.695 0.150773C123.146 0.150773 123.647 0.150773 124.098 0.201031C124.599 0.251289 125.05 0.301546 125.501 0.301546C126.955 0.502577 128.358 0.854381 129.762 1.35696C131.165 1.85954 132.518 2.51289 133.821 3.31701C136.578 5.12629 138.733 7.4884 140.237 10.4536C141.74 13.4188 142.492 16.5348 142.492 19.7513C142.492 20.2539 142.492 20.6559 142.492 21.058ZM132.368 18.9472C132.368 18.6959 132.318 18.4948 132.318 18.2436C132.117 16.5851 131.616 14.9768 130.814 13.4188C130.012 11.8608 128.859 10.6546 127.456 9.80026C127.055 9.59923 126.704 9.44845 126.303 9.29768C125.902 9.14691 125.552 8.99613 125.151 8.89562C124.75 8.7951 124.399 8.74484 123.998 8.69459C123.597 8.64433 123.246 8.59407 122.845 8.59407C120.89 8.59407 119.036 9.19716 117.382 10.4536C115.728 11.7101 114.525 13.3686 113.873 15.4291C113.823 15.5296 113.823 15.5799 113.773 15.6804C113.773 15.7809 113.723 15.8312 113.723 15.9317C113.623 16.2835 113.523 16.6353 113.422 16.9871C113.322 17.3389 113.272 17.741 113.172 18.143C113.122 18.3943 113.122 18.6959 113.072 18.9472C113.072 19.1985 113.021 19.4497 113.021 19.7513C113.021 19.9021 113.021 20.0528 113.021 20.2036C113.021 20.3544 113.021 20.5052 113.072 20.6559C113.172 22.7165 113.823 24.6765 114.976 26.5361C116.129 28.3956 117.683 29.6018 119.738 30.2049C119.988 30.3054 120.189 30.3557 120.439 30.4059C120.69 30.4562 120.94 30.5064 121.191 30.5567C121.442 30.607 121.642 30.607 121.893 30.6572C122.143 30.6572 122.344 30.7075 122.594 30.7075C124.649 30.7075 126.504 30.1044 128.158 28.8479C129.812 27.6418 131.015 25.9832 131.716 23.9227C131.817 23.5206 131.917 23.1186 132.017 22.7165C132.117 22.2642 132.167 21.8621 132.218 21.4098C132.268 21.1585 132.268 20.857 132.318 20.6057C132.318 20.3544 132.368 20.1031 132.368 19.8518C132.368 19.4497 132.368 19.1985 132.368 18.9472ZM176.223 38.0954L162.139 18.8969C161.738 18.4446 161.388 17.8918 161.037 17.2384C160.686 16.5851 160.335 15.9317 160.034 15.2281C159.784 14.7255 159.583 14.2229 159.383 13.7204C159.182 13.2178 158.982 12.7655 158.781 12.3634C158.982 13.5696 159.132 14.7758 159.232 16.0322C159.333 17.2887 159.383 18.5451 159.383 19.7513V38.0954H149.609V0.904639H159.383L173.366 20.0026C173.717 20.5554 174.068 21.1082 174.369 21.7113C174.72 22.3144 175.02 22.9175 175.321 23.5709C175.572 24.0735 175.772 24.576 176.023 25.0786C176.273 25.5812 176.474 26.0838 176.724 26.5361C176.674 26.0838 176.624 25.6817 176.574 25.3299C176.524 24.9278 176.474 24.5258 176.424 24.1237C176.323 23.3698 176.273 22.5657 176.273 21.7113C176.223 20.9072 176.223 20.0528 176.223 19.1985V0.954897H185.947V38.1456H176.223V38.0954ZM218.876 38.0954L217.021 31.4111H202.687L200.782 38.1456H190.758L203.489 0.954897H216.119L229 38.1456H218.876V38.0954ZM211.107 11.9111C210.907 11.308 210.706 10.7049 210.556 10.0515C210.405 9.3982 210.255 8.7951 210.105 8.14175C210.004 7.89046 209.954 7.68943 209.954 7.4884C209.904 7.28737 209.854 7.08634 209.854 6.88531C209.804 7.08634 209.754 7.28737 209.704 7.4884C209.654 7.68943 209.603 7.94072 209.553 8.14175C209.503 8.24227 209.503 8.29253 209.503 8.34278C209.503 8.39304 209.503 8.49356 209.453 8.54381C209.353 9.14691 209.202 9.69974 209.052 10.2526C208.902 10.8054 208.751 11.3582 208.601 11.9111L204.842 24.2242H214.916L211.107 11.9111Z" fill="white"/>
  </symbol>
</svg>
